<svg aria-hidden="true" style="position:absolute;width:0;height:0;overflow:hidden" xmlns="http://www.w3.org/2000/svg">
    <defs>
        <symbol id="icon-SAYAMA-RS" viewBox="0 0 92 32">
<path fill="#fff" style="fill: var(--color1, #fff)" d="M86.843 2.995v2.419c0 0 0 0.062 0.062 0.062h0.435c0 0 0.062 0 0.062-0.062v-0.806c0.186 0 0.372 0 0.372 0s0.372 0.683 0.372 0.744c0.062 0.062 0.124 0.062 0.124 0.062h0.435c0 0 0 0 0-0.062l-0.435-0.93c0.248-0.125 0.372-0.372 0.372-0.683 0-0.434-0.372-0.806-0.869-0.806h-0.869c0-0.001-0.062-0.001-0.062 0.062zM87.401 3.367h0.372c0.186 0 0.372 0.186 0.372 0.372s-0.186 0.372-0.372 0.372h-0.372v-0.744z"></path>
<path fill="#fff" style="fill: var(--color1, #fff)" d="M84.92 4.173c0 1.55 1.241 2.791 2.792 2.791s2.791-1.241 2.791-2.791c0-1.551-1.241-2.792-2.791-2.792-1.551 0.001-2.792 1.242-2.792 2.792zM89.944 4.173c0 1.241-0.992 2.233-2.233 2.233s-2.234-0.992-2.234-2.233c0-1.241 0.993-2.234 2.234-2.234 1.241 0.001 2.233 0.993 2.233 2.234z"></path>
<path fill="#fff" style="fill: var(--color1, #fff)" d="M49.258 4.422l2.922 17.211h-4.841l-0.399-3.122h-2.655l-0.396 3.122h-4.844l2.921-17.211h7.292zM46.554 15.494v0l-0.941-7.371-0.941 7.371h1.883z"></path>
<path fill="#fff" style="fill: var(--color1, #fff)" d="M81.865 4.422l2.919 17.211h-4.843l-0.399-3.122h-2.651l-0.4 3.122h-4.84l2.919-17.211h7.294zM79.158 15.494v0l-0.941-7.371-0.941 7.371h1.883z"></path>
<path fill="#fff" style="fill: var(--color1, #fff)" d="M25.881 4.422l2.922 17.211h-4.841l-0.399-3.122h-2.652l-0.4 3.122h-4.844l2.922-17.211h7.292zM23.177 15.494v0l-0.941-7.371-0.941 7.371h1.883z"></path>
<path fill="#fff" style="fill: var(--color1, #fff)" d="M36.331 21.633v-6.14l3.732-11.072-4.819 0.004-1.322 6.839-1.322-6.839v-0.004h-4.819l3.731 11.072v6.14h2.41z"></path>
<path fill="#fff" style="fill: var(--color1, #fff)" d="M14.264 8.948c0-1.365-0.155-2.333-0.46-2.903-0.312-0.572-0.941-1.046-1.893-1.423-0.95-0.373-2.095-0.561-3.45-0.561-1.237 0-2.29 0.175-3.164 0.511-0.871 0.346-1.501 0.821-1.893 1.434-0.39 0.609-0.583 1.577-0.583 2.889 0 0.915 0.134 1.665 0.41 2.256 0.273 0.585 0.623 1.049 1.038 1.379 0.421 0.339 1.279 0.867 2.571 1.609 1.29 0.732 2.105 1.249 2.435 1.56 0.318 0.308 0.48 0.974 0.48 1.991 0 0.459-0.087 0.806-0.255 1.038-0.168 0.236-0.425 0.352-0.769 0.352-0.345 0-0.588-0.094-0.726-0.276-0.136-0.187-0.203-0.596-0.203-1.242v-2.098h-4.822v1.126c0 1.29 0.154 2.284 0.455 2.989 0.308 0.701 0.951 1.279 1.936 1.729 0.981 0.456 2.17 0.685 3.559 0.685 1.27 0 2.378-0.197 3.336-0.59 0.951-0.389 1.595-0.883 1.929-1.462 0.333-0.581 0.501-1.481 0.501-2.711 0-1.686-0.299-2.908-0.905-3.668-0.601-0.754-2.056-1.725-4.366-2.907-0.803-0.417-1.298-0.762-1.47-1.053-0.182-0.29-0.269-0.726-0.269-1.301 0-0.443 0.077-0.781 0.238-0.993 0.164-0.228 0.396-0.333 0.706-0.333 0.292 0 0.498 0.080 0.623 0.242 0.122 0.164 0.189 0.544 0.189 1.139v1.276h4.823v-0.684z"></path>
<path fill="#fff" style="fill: var(--color1, #fff)" d="M63.47 21.633l1.912-11.35v11.35h4.82v-17.211h-6.977l-1.322 6.843-1.323-6.843h-6.977v17.211h4.822v-11.35l1.911 11.35h1.568z"></path>
<path fill="#fff" style="fill: var(--color1, #fff)" d="M2.834 30.099v-5.095h0.487v4.685h2.349v0.41h-2.835z"></path>
<path fill="#fff" style="fill: var(--color1, #fff)" d="M7.317 28.434c0 0.429 0.119 0.76 0.358 0.992s0.582 0.348 1.028 0.348c0.445 0 0.786-0.116 1.024-0.348s0.357-0.562 0.357-0.992v-3.43h0.487v3.43c0 0.565-0.159 0.997-0.48 1.298s-0.782 0.452-1.388 0.452-1.069-0.151-1.39-0.452c-0.322-0.301-0.483-0.733-0.483-1.298v-3.43h0.485v3.43z"></path>
<path fill="#fff" style="fill: var(--color1, #fff)" d="M12.129 30.099l1.625-2.603-1.519-2.49h0.532l1.256 2.053 1.256-2.053h0.511l-1.504 2.463 1.651 2.631h-0.554l-1.374-2.228-1.367 2.228h-0.513z"></path>
<path fill="#fff" style="fill: var(--color1, #fff)" d="M17.975 28.434c0 0.429 0.119 0.76 0.358 0.992s0.582 0.348 1.028 0.348c0.445 0 0.786-0.116 1.024-0.348s0.357-0.562 0.357-0.992v-3.43h0.487v3.43c0 0.565-0.159 0.997-0.48 1.298-0.319 0.301-0.782 0.452-1.388 0.452s-1.069-0.151-1.39-0.452c-0.322-0.301-0.483-0.733-0.483-1.298v-3.43h0.485v3.43z"></path>
<path fill="#fff" style="fill: var(--color1, #fff)" d="M24.883 25.004c0.622 0 1.091 0.116 1.404 0.348 0.315 0.232 0.471 0.578 0.471 1.037 0 0.344-0.088 0.628-0.263 0.849s-0.436 0.381-0.783 0.477l1.263 2.384h-0.55l-1.221-2.315h-1.295v2.315h-0.487v-5.095h1.46zM24.95 25.414h-1.039v1.971h1.185c0.372 0 0.657-0.085 0.858-0.256s0.299-0.415 0.299-0.732c0-0.333-0.108-0.581-0.322-0.74-0.213-0.164-0.54-0.243-0.981-0.243z"></path>
<path fill="#fff" style="fill: var(--color1, #fff)" d="M29.79 30.099v-2.087l-1.607-3.008h0.515l1.323 2.442 1.344-2.442h0.515l-1.603 3.008v2.087h-0.487z"></path>
<path fill="#fff" style="fill: var(--color1, #fff)" d="M37.864 25.004c0.623 0 1.090 0.116 1.404 0.348s0.471 0.578 0.471 1.037c0 0.344-0.088 0.628-0.263 0.849s-0.436 0.381-0.785 0.477l1.263 2.384h-0.55l-1.221-2.315h-1.295v2.315h-0.485v-5.095h1.46zM37.931 25.414h-1.039v1.971h1.185c0.371 0 0.657-0.085 0.858-0.256s0.299-0.415 0.299-0.732c0-0.333-0.106-0.581-0.32-0.74-0.214-0.164-0.541-0.243-0.982-0.243z"></path>
<path fill="#fff" style="fill: var(--color1, #fff)" d="M44.822 29.689v0.41h-3.118v-5.095h3.009v0.41h-2.524v1.785h1.825v0.41h-1.825v2.080h2.633z"></path>
<path fill="#fff" style="fill: var(--color1, #fff)" d="M45.921 30.099l1.642-5.095h0.653l1.642 5.095h-0.501l-0.525-1.67h-1.916l-0.525 1.67h-0.471zM47.046 28.017h1.663l-0.827-2.687-0.837 2.687z"></path>
<path fill="#fff" style="fill: var(--color1, #fff)" d="M51.522 30.099v-5.095h0.487v4.685h2.349v0.41h-2.835z"></path>
<path fill="#fff" style="fill: var(--color1, #fff)" d="M61.907 29.689v0.41h-3.119v-5.095h3.009v0.41h-2.522v1.785h1.825v0.41h-1.825v2.080h2.633z"></path>
<path fill="#fff" style="fill: var(--color1, #fff)" d="M63.145 28.879l0.422-0.169c0.141 0.362 0.323 0.631 0.544 0.804s0.492 0.26 0.814 0.26c0.332 0 0.597-0.091 0.8-0.273 0.201-0.182 0.304-0.42 0.304-0.716 0-0.236-0.066-0.431-0.199-0.583s-0.357-0.292-0.674-0.418c-0.172-0.067-0.401-0.147-0.687-0.241s-0.467-0.164-0.548-0.21c-0.253-0.143-0.432-0.294-0.54-0.455-0.106-0.161-0.159-0.36-0.159-0.596 0-0.422 0.133-0.755 0.401-0.997s0.635-0.364 1.104-0.364c0.417 0 0.76 0.099 1.031 0.298s0.477 0.504 0.62 0.915l-0.411 0.127c-0.13-0.318-0.298-0.551-0.502-0.702s-0.457-0.228-0.757-0.228c-0.291 0-0.527 0.081-0.708 0.245s-0.271 0.375-0.271 0.638c0 0.197 0.059 0.364 0.176 0.499s0.298 0.246 0.544 0.33c0.095 0.035 0.232 0.081 0.411 0.141 0.516 0.169 0.848 0.305 0.997 0.403 0.239 0.151 0.413 0.318 0.519 0.498 0.108 0.18 0.162 0.393 0.162 0.639 0 0.446-0.145 0.8-0.435 1.065s-0.681 0.396-1.176 0.396c-0.445 0-0.811-0.106-1.098-0.318-0.288-0.211-0.516-0.541-0.684-0.989z"></path>
<path fill="#fff" style="fill: var(--color1, #fff)" d="M69.29 30.099v-4.685h-1.554v-0.41h3.598v0.41h-1.554v4.685h-0.49z"></path>
<path fill="#fff" style="fill: var(--color1, #fff)" d="M71.929 30.099l1.642-5.095h0.653l1.642 5.095h-0.501l-0.525-1.67h-1.916l-0.525 1.67h-0.471zM73.055 28.017h1.663l-0.827-2.687-0.837 2.687z"></path>
<path fill="#fff" style="fill: var(--color1, #fff)" d="M78.018 30.099v-4.685h-1.554v-0.41h3.598v0.41h-1.554v4.685h-0.49z"></path>
<path fill="#fff" style="fill: var(--color1, #fff)" d="M84.773 29.689v0.41h-3.119v-5.095h3.009v0.41h-2.522v1.785h1.826v0.41h-1.826v2.080h2.633z"></path>
</symbol>
<symbol id="icon-hOne_sv_3" viewBox="0 0 38 32">
<path fill="#fff" style="fill: var(--color1, #fff)" d="M22.259 15.484h-1.023v-2.677c0-2.81-1.975-5.095-4.403-5.095s-4.403 2.286-4.403 5.095v2.677h-1.023c-0.36 0-0.652 0.338-0.652 0.755v11.131c0 0.417 0.292 0.755 0.652 0.755h10.853c0.36 0 0.652-0.338 0.652-0.755v-11.131c0-0.417-0.292-0.755-0.652-0.755zM13.734 12.806c0-1.977 1.39-3.585 3.098-3.585s3.098 1.608 3.098 3.585v2.677h-6.197v-2.677zM21.607 26.614h-9.548v-9.621h9.548v9.621z"></path>
<path fill="#fff" style="fill: var(--color1, #fff)" d="M16.18 22.784v1.834c0 0.417 0.292 0.755 0.652 0.755s0.652-0.338 0.652-0.755v-1.834c0.788-0.314 1.357-1.181 1.357-2.198 0-1.282-0.901-2.325-2.009-2.325s-2.009 1.043-2.009 2.325c0 1.018 0.568 1.884 1.357 2.198zM16.833 19.771c0.388 0 0.704 0.366 0.704 0.815s-0.316 0.815-0.704 0.815-0.704-0.366-0.704-0.815c0-0.449 0.316-0.815 0.704-0.815z"></path>
<path fill="#fff" style="fill: var(--color1, #fff)" d="M37.325 9.088c-0.342-0.501-0.854-0.789-1.406-0.789h-2.254v-2.715c0-1.056-0.743-1.916-1.656-1.916h-15.755c-0.108 0-0.205-0.079-0.242-0.197l-0.677-2.193c-0.228-0.738-0.836-1.234-1.513-1.234h-7.898c-0.677 0-1.285 0.496-1.513 1.234l-0.677 2.193c-0.036 0.118-0.134 0.197-0.242 0.197h-1.836c-0.913-0-1.656 0.859-1.656 1.916v24.454c0 1.056 0.743 1.916 1.656 1.916h30.354c0.88 0 1.6-0.799 1.651-1.803l4-19.298c0.129-0.621 0.007-1.265-0.335-1.766zM32.36 30.039c0 0.224-0.157 0.406-0.351 0.406h-30.354c-0.193 0-0.351-0.182-0.351-0.406v-24.454c0-0.224 0.157-0.406 0.351-0.406h1.836c0.658 0 1.249-0.482 1.471-1.199l0.677-2.193c0.043-0.139 0.157-0.232 0.285-0.232h7.898c0.127 0 0.242 0.093 0.285 0.232l0.677 2.193c0.222 0.717 0.813 1.199 1.471 1.199h15.755c0.193 0 0.351 0.182 0.351 0.406v24.454zM36.391 10.502l-2.726 13.152v-13.845h2.254c0.205 0 0.327 0.134 0.381 0.214s0.139 0.248 0.091 0.479z"></path>
</symbol>
<symbol id="icon-hOne_sv_1" viewBox="0 0 27 32">
<path fill="#fff" style="fill: var(--color1, #fff)" d="M26.689 28.485l-4.237-10.228c-0.108-0.26-0.407-0.384-0.667-0.276s-0.384 0.407-0.276 0.667l3.83 9.246-3.493-1.012c-0.229-0.067-0.474 0.035-0.589 0.244l-1.755 3.186-4.109-9.921c4.743-0.915 8.337-5.096 8.337-10.102 0-5.673-4.615-10.289-10.289-10.289s-10.289 4.616-10.289 10.289c0 2.298 0.757 4.422 2.035 6.137l-4.995 12.060c-0.075 0.181-0.040 0.39 0.091 0.536s0.334 0.205 0.523 0.15l4.121-1.194 2.070 3.759c0.090 0.164 0.262 0.264 0.447 0.264 0.009 0 0.019-0 0.028-0.001 0.196-0.011 0.368-0.133 0.444-0.314l3.958-9.556c0.108-0.26-0.016-0.559-0.276-0.667s-0.559 0.016-0.667 0.276l-3.552 8.574-1.754-3.186c-0.115-0.209-0.36-0.311-0.589-0.244l-3.493 1.012 4.385-10.585c1.879 2.010 4.552 3.268 7.514 3.268 0.306 0 0.608-0.014 0.907-0.040l4.617 11.147c0.075 0.181 0.248 0.304 0.444 0.314 0.009 0 0.019 0.001 0.028 0.001 0.185 0 0.357-0.101 0.447-0.264l2.070-3.759 4.121 1.194c0.189 0.055 0.392-0.004 0.523-0.15s0.166-0.355 0.091-0.536zM4.172 10.289c0-5.11 4.157-9.268 9.268-9.268s9.268 4.157 9.268 9.268-4.157 9.268-9.268 9.268c-5.11 0-9.268-4.157-9.268-9.268z"></path>
<path fill="#fff" style="fill: var(--color1, #fff)" d="M19.34 8.372c-0.059-0.181-0.213-0.314-0.401-0.346l-3.436-0.577-1.61-3.090c-0.088-0.169-0.263-0.275-0.453-0.275s-0.365 0.106-0.453 0.275l-1.61 3.090-3.436 0.577c-0.188 0.031-0.342 0.165-0.401 0.346s-0.012 0.38 0.121 0.516l2.441 2.486-0.513 3.446c-0.028 0.188 0.051 0.376 0.205 0.488s0.357 0.129 0.528 0.044l3.119-1.553 3.119 1.553c0.072 0.036 0.15 0.053 0.228 0.053 0.106 0 0.211-0.033 0.3-0.097 0.154-0.112 0.233-0.3 0.205-0.488l-0.513-3.446 2.441-2.486c0.133-0.136 0.18-0.335 0.121-0.516zM15.871 10.839c-0.112 0.114-0.164 0.275-0.141 0.433l0.406 2.728-2.469-1.23c-0.072-0.036-0.15-0.054-0.228-0.054s-0.156 0.018-0.228 0.054l-2.469 1.23 0.406-2.728c0.024-0.158-0.028-0.319-0.141-0.433l-1.933-1.968 2.72-0.457c0.158-0.027 0.294-0.126 0.368-0.268l1.275-2.446 1.275 2.446c0.074 0.142 0.21 0.241 0.368 0.268l2.721 0.457-1.933 1.968z"></path>
<path fill="#fff" style="fill: var(--color1, #fff)" d="M21.175 10.804c-0.28-0.037-0.536 0.16-0.573 0.439-0.474 3.575-3.553 6.271-7.162 6.271-3.984 0-7.225-3.241-7.225-7.225s3.241-7.225 7.225-7.225c3.609 0 6.688 2.696 7.162 6.271 0.037 0.28 0.294 0.477 0.573 0.439s0.476-0.294 0.439-0.573c-0.541-4.081-4.055-7.158-8.174-7.158-4.547 0-8.246 3.699-8.246 8.246s3.699 8.246 8.246 8.246c4.12 0 7.634-3.077 8.174-7.158 0.037-0.28-0.16-0.536-0.439-0.573z"></path>
</symbol>
<symbol id="icon-hOne_sv_2" viewBox="0 0 27 32">
<path fill="#fff" style="fill: var(--color1, #fff)" d="M17.927 0h-17.287v32h25.067v-24.221l-7.779-7.779zM18.24 1.821l5.646 5.646h-5.646v-5.646zM1.707 30.933v-29.867h15.467v7.467h7.467v22.4h-22.933z"></path>
<path fill="#fff" style="fill: var(--color1, #fff)" d="M19.84 11.2h-8.533c-0.294 0-0.533 0.238-0.533 0.533s0.239 0.533 0.533 0.533h8.533c0.294 0 0.533-0.238 0.533-0.533s-0.239-0.533-0.533-0.533z"></path>
<path fill="#fff" style="fill: var(--color1, #fff)" d="M9.373 9.717l-2.294 1.835-0.729-0.729c-0.209-0.209-0.546-0.209-0.754 0s-0.209 0.546 0 0.754l1.067 1.067c0.103 0.103 0.24 0.156 0.377 0.156 0.117 0 0.235-0.038 0.333-0.117l2.667-2.133c0.23-0.185 0.267-0.52 0.083-0.75s-0.519-0.267-0.749-0.083z"></path>
<path fill="#fff" style="fill: var(--color1, #fff)" d="M19.84 17.067h-8.533c-0.294 0-0.533 0.238-0.533 0.533s0.239 0.533 0.533 0.533h8.533c0.294 0 0.533-0.238 0.533-0.533s-0.239-0.533-0.533-0.533z"></path>
<path fill="#fff" style="fill: var(--color1, #fff)" d="M9.373 15.584l-2.294 1.835-0.729-0.729c-0.209-0.209-0.546-0.209-0.754 0s-0.209 0.546 0 0.754l1.067 1.067c0.103 0.103 0.24 0.156 0.377 0.156 0.117 0 0.235-0.038 0.333-0.117l2.667-2.133c0.23-0.184 0.267-0.52 0.083-0.75s-0.519-0.267-0.749-0.083z"></path>
<path fill="#fff" style="fill: var(--color1, #fff)" d="M19.84 22.933h-8.533c-0.294 0-0.533 0.238-0.533 0.533s0.239 0.533 0.533 0.533h8.533c0.294 0 0.533-0.238 0.533-0.533s-0.239-0.533-0.533-0.533z"></path>
<path fill="#fff" style="fill: var(--color1, #fff)" d="M9.373 21.45l-2.294 1.835-0.729-0.729c-0.209-0.209-0.546-0.209-0.754 0s-0.209 0.546 0 0.754l1.067 1.067c0.103 0.103 0.24 0.156 0.377 0.156 0.117 0 0.235-0.038 0.333-0.117l2.667-2.133c0.23-0.184 0.267-0.52 0.083-0.75s-0.519-0.267-0.749-0.083z"></path>
</symbol>
<symbol id="icon-WEQ" viewBox="0 0 20 32">
<path fill="none" stroke="#fff" style="stroke: var(--color1, #fff)" stroke-linejoin="miter" stroke-linecap="butt" stroke-miterlimit="10" stroke-width="0.5694" d="M0.968 24.028v-15.374c0 0 0.797-6.833 8.826-6.833 8.313 0 8.826 6.833 8.826 6.833v15.374c0 2.847-3.189 6.833-8.826 6.833-5.125 0-8.826-3.929-8.826-6.833z"></path>
<path fill="none" stroke="#fff" style="stroke: var(--color1, #fff)" stroke-linejoin="miter" stroke-linecap="butt" stroke-miterlimit="10" stroke-width="0.5694" d="M9.794 5.238v7.972"></path>
</symbol>
    </defs>
</svg>