<svg aria-hidden="true" style="position:absolute;width:0;height:0;overflow:hidden" xmlns="http://www.w3.org/2000/svg">
    <defs>
        <symbol id="icon-envelope" viewBox="0 0 32 32"><path d="M28.093 3.824H3.913A3.916 3.916 0 0 0 0 7.737v16.526a3.917 3.917 0 0 0 3.913 3.913h24.174A3.917 3.917 0 0 0 32 24.263V7.743a3.912 3.912 0 0 0-3.907-3.92zm2.126 20.439a2.127 2.127 0 0 1-2.125 2.125H3.914a2.127 2.127 0 0 1-2.125-2.125V7.743c0-1.172.953-2.125 2.125-2.125h24.174c1.172 0 2.125.953 2.125 2.125v16.52h.007z"/><path d="m20.181 15.795 7.826-7.018a.899.899 0 0 0 .066-1.265.899.899 0 0 0-1.265-.066l-10.793 9.687-2.106-1.88c-.007-.007-.013-.013-.013-.02a1.362 1.362 0 0 0-.146-.126L5.182 7.44c-.371-.331-.934-.298-1.265.073s-.298.934.073 1.265l7.919 7.078-7.886 7.383a.898.898 0 0 0 1.225 1.312l8.005-7.489 2.172 1.94a.894.894 0 0 0 1.192-.007l2.231-2 7.959 7.561a.896.896 0 0 0 1.265-.033.898.898 0 0 0-.033-1.265l-7.859-7.462z"/></symbol>
        <symbol id="icon-phone" viewBox="0 0 36 32"><path d="M28.1 19.823c-.728-.682-1.606-1.047-2.536-1.047-.923 0-1.809.358-2.567 1.04l-2.371 2.127c-.195-.094-.39-.182-.578-.27-.27-.122-.525-.236-.743-.358-2.221-1.27-4.24-2.924-6.176-5.065-.938-1.067-1.568-1.965-2.026-2.877.615-.507 1.186-1.033 1.741-1.54.21-.189.42-.385.63-.574 1.576-1.418 1.576-3.255 0-4.674l-2.049-1.844a26.523 26.523 0 0 1-.698-.642c-.45-.419-.923-.851-1.411-1.256-.728-.648-1.598-.993-2.514-.993s-1.801.344-2.551.993l-.015.014-2.551 2.317C.724 6.039.177 7.092.057 8.315c-.18 1.972.465 3.809.961 5.011 1.216 2.951 3.032 5.687 5.741 8.618 3.287 3.532 7.242 6.322 11.759 8.287 1.726.736 4.03 1.607 6.604 1.756.158.007.323.014.473.014 1.733 0 3.189-.561 4.33-1.675.008-.014.023-.02.03-.034.39-.425.841-.81 1.313-1.222.323-.277.653-.567.976-.871.743-.696 1.133-1.506 1.133-2.337 0-.837-.398-1.641-1.156-2.317l-4.12-3.721zm2.687 7.112c-.007 0-.007.007 0 0-.293.284-.593.54-.916.824a18.74 18.74 0 0 0-1.448 1.351c-.758.729-1.651 1.074-2.822 1.074-.113 0-.233 0-.345-.007-2.229-.128-4.3-.912-5.853-1.58-4.247-1.851-7.977-4.478-11.076-7.807-2.559-2.776-4.27-5.342-5.403-8.098-.698-1.682-.953-2.992-.84-4.228.075-.79.413-1.445 1.036-2.006l2.559-2.303c.368-.311.758-.48 1.141-.48.473 0 .856.257 1.096.473l.022.02c.458.385.893.783 1.351 1.209.233.216.473.432.713.655l2.049 1.844c.795.716.795 1.378 0 2.094-.218.196-.428.392-.645.581a37.445 37.445 0 0 1-1.884 1.648c-.015.014-.03.02-.037.034-.645.581-.525 1.148-.39 1.533l.023.061c.533 1.162 1.283 2.256 2.424 3.559l.008.007c2.071 2.296 4.255 4.086 6.664 5.457.308.176.623.317.923.453.27.121.525.236.743.358.03.014.06.034.09.047.255.115.495.169.743.169.623 0 1.013-.351 1.141-.466l2.566-2.31c.255-.23.66-.507 1.133-.507.465 0 .848.263 1.081.493l.015.014 4.135 3.721c.773.689.773 1.398.007 2.114zM19.215 7.612c1.966.297 3.752 1.135 5.178 2.418s2.349 2.891 2.687 4.66c.082.446.51.756.998.756.06 0 .113-.007.173-.014.555-.081.923-.554.833-1.054-.405-2.141-1.531-4.093-3.249-5.639s-3.887-2.56-6.266-2.924c-.555-.081-1.073.25-1.171.743s.263.973.818 1.054zM35.515 14.116c-.668-3.525-2.514-6.734-5.351-9.287S23.763.615 19.846.014c-.548-.088-1.066.25-1.163.743-.09.5.278.966.833 1.054 3.497.534 6.686 2.026 9.223 4.302 2.537 2.283 4.187 5.153 4.78 8.3.083.446.51.756.998.756.06 0 .113-.007.173-.014.548-.074.923-.547.825-1.04z"/></symbol>
        <symbol id="icon-placeholder" viewBox="0 0 32 32"><path d="M15.978 0C9.511 0 4.25 5.261 4.25 11.728c0 2.971 1.872 7.168 5.564 12.475 2.698 3.88 5.353 6.882 5.464 7.008l.7.789.7-.789a83.531 83.531 0 0 0 5.464-7.008c3.692-5.307 5.564-9.505 5.564-12.475C27.706 5.261 22.445 0 15.978 0zm4.638 23.12a84.725 84.725 0 0 1-4.639 6.034 85.105 85.105 0 0 1-4.628-6.019C7.928 18.218 6.12 14.273 6.12 11.728c0-5.435 4.422-9.857 9.857-9.857s9.857 4.422 9.857 9.857c0 2.542-1.804 6.481-5.218 11.392z"/><path d="M15.978 4.334c-3.817 0-6.922 3.105-6.922 6.922s3.105 6.922 6.922 6.922c3.817 0 6.922-3.105 6.922-6.922s-3.105-6.922-6.922-6.922zm0 11.973c-2.785 0-5.051-2.266-5.051-5.051s2.266-5.051 5.051-5.051 5.051 2.266 5.051 5.051-2.266 5.051-5.051 5.051z"/></symbol>
        <symbol id="icon-telegram" viewBox="0 0 32 32"><path d="M30.664 9.59a15.946 15.946 0 0 0-3.629-5.176.502.502 0 0 0-.692.725A14.864 14.864 0 0 1 30.998 16c0 8.27-6.728 14.998-14.998 14.998S1.002 24.27 1.002 16 7.73 1.002 16 1.002c3.021 0 5.933.894 8.421 2.586a.5.5 0 1 0 .563-.829A15.917 15.917 0 0 0 15.999 0C11.725 0 7.707 1.664 4.685 4.686S-.001 11.726-.001 16s1.664 8.292 4.686 11.314S11.725 32 15.999 32s8.292-1.664 11.314-4.686 4.686-7.04 4.686-11.314c0-2.228-.45-4.385-1.336-6.41z"/><path d="m23.271 6.784-9.636 4.486a.501.501 0 1 0 .423.909l5.944-2.767-9.521 7.708-3.627-1.587 5.083-2.366a.501.501 0 1 0-.423-.909l-5.471 2.547a.81.81 0 0 0 .017 1.474l4.05 1.772 1.186 7.117c.073.44.669.565.913.192l3.365-5.136 6.363 2.969a.816.816 0 0 0 1.149-.685l.896-15.241a.506.506 0 0 0-.712-.484zM11.876 22.558l-.775-4.652 7.898-6.394-6.045 6.778a.516.516 0 0 0-.114.217l-.964 4.051zm1.065-.144.732-3.077.983.459-1.715 2.618zm2.27-3.465-1.06-.495 5.217-5.849-4.156 6.344zm6.891 3.217-5.974-2.788 6.744-10.293-.77 13.081z"/></symbol>
        <symbol id="icon-viber" viewBox="0 0 32 32"><path d="M27.2 3.358a.501.501 0 1 0-.716.702 10.132 10.132 0 0 1 2.912 7.132v4.811c0 5.618-4.571 10.189-10.189 10.189h-5.88a.5.5 0 0 0-.354.147l-3.955 3.955v-4.491a.502.502 0 0 0-.3-.459 10.194 10.194 0 0 1-6.114-9.341v-4.811c0-5.618 4.571-10.189 10.189-10.189h6.414c2.002 0 3.94.58 5.604 1.678a.501.501 0 0 0 .552-.836A11.147 11.147 0 0 0 19.207.001h-6.414C6.622.001 1.602 5.022 1.602 11.192v4.811c0 4.339 2.507 8.277 6.414 10.122v5.379c0 .436.546.664.855.354l4.664-4.664h5.672c6.171 0 11.191-5.02 11.191-11.191v-4.811a11.13 11.13 0 0 0-3.199-7.834z"/><path d="m24.037 19.895-.48-2.603a.503.503 0 0 0-.395-.401l-3.78-.756a.503.503 0 0 0-.453.137l-1.552 1.552c-2.616-1.167-4.061-2.616-5.334-5.343l1.547-1.547a.502.502 0 0 0 .137-.453l-.756-3.78a.5.5 0 0 0-.4-.394l-2.603-.481a.491.491 0 0 0-.202.004 3.701 3.701 0 0 0-1.798.993c-.857.857-1.184 2.108-.946 3.619.108.688.269 1.401.478 2.118a.501.501 0 0 0 .962-.28 16.053 16.053 0 0 1-.45-1.994c-.189-1.198.035-2.125.665-2.755a2.696 2.696 0 0 1 1.215-.701l2.163.399.637 3.184-1.604 1.603a.5.5 0 0 0-.103.559c1.458 3.264 3.168 4.973 6.309 6.304.188.08.406.037.55-.107l1.603-1.603 3.184.637.399 2.164a2.703 2.703 0 0 1-.7 1.215c-.63.63-1.557.853-2.755.664-2.395-.377-5.718-1.54-7.859-3.673l-.031-.031c-.985-.989-1.863-2.353-2.539-3.945a.5.5 0 1 0-.922.392c.726 1.708 1.677 3.182 2.753 4.263l.031.031c2.312 2.303 5.861 3.552 8.412 3.954.32.05.628.075.924.075 1.099 0 2.02-.346 2.695-1.021a3.697 3.697 0 0 0 .993-1.798.491.491 0 0 0 .004-.202zM17.069 9.087a.5.5 0 1 0 0 1.002c1.197 0 2.171.974 2.171 2.171 0 .273.228.501.501.501s.501-.228.501-.501a3.178 3.178 0 0 0-3.174-3.174z"/><path d="M17.069 6.949c-.197 0-.395.011-.589.032a.501.501 0 0 0 .11.996 4.314 4.314 0 0 1 4.763 4.763.501.501 0 0 0 .996.11 5.318 5.318 0 0 0-5.28-5.902z"/><path d="M17.069 4.811c-.19 0-.383.007-.572.022a.502.502 0 0 0 .076 1 6.455 6.455 0 0 1 6.772 7.917.507.507 0 0 0 .363.601.505.505 0 0 0 .612-.37 7.5 7.5 0 0 0 .199-1.719c0-4.108-3.342-7.45-7.45-7.45z"/></symbol>
        <symbol id="icon-whatsapp" viewBox="0 0 32 32"><path d="M16 0C7.177 0 0 7.177 0 16c0 3.01.836 5.932 2.423 8.469-.632 2.214-1.774 6.402-1.786 6.446a.613.613 0 0 0 .775.75l6.342-1.951A15.955 15.955 0 0 0 16 32c8.823 0 16-7.177 16-16S24.823 0 16 0zm0 30.769c-2.781 0-5.49-.777-7.834-2.247a.616.616 0 0 0-.508-.066L2.12 30.161a611.93 611.93 0 0 1 1.562-5.618.616.616 0 0 0-.075-.505 14.716 14.716 0 0 1-2.376-8.037C1.231 7.858 7.857 1.232 16 1.232s14.769 6.626 14.769 14.769S24.143 30.77 16 30.77z"/><path d="M26.452 19.77a44.25 44.25 0 0 1-2.809-1.725c-.539-.352-.929-.606-1.214-.75-.798-.398-1.403-.117-1.633.116a.575.575 0 0 0-.077.094c-.829 1.244-1.911 2.433-2.228 2.497-.366-.057-2.08-1.031-3.783-2.45-1.739-1.449-2.833-2.837-2.994-3.782 1.116-1.148 1.518-1.871 1.518-2.693 0-.847-1.977-4.385-2.334-4.743-.359-.358-1.167-.414-2.402-.168a.615.615 0 0 0-.314.168c-.15.15-3.649 3.717-1.986 8.041 1.825 4.745 6.51 10.261 12.483 11.157.679.102 1.315.152 1.911.152 3.514 0 5.588-1.768 6.172-5.275a.612.612 0 0 0-.308-.639zm-7.592 4.544c-6.316-.947-10.295-7.205-11.517-10.382-1.212-3.151 1.023-5.96 1.585-6.595.457-.078.937-.11 1.138-.079.419.583 1.87 3.324 1.934 3.818 0 .323-.105.773-1.358 2.026a.61.61 0 0 0-.18.435c0 3.222 6.796 7.692 8 7.692 1.047 0 2.412-1.759 3.189-2.906a.582.582 0 0 1 .228.071c.221.111.605.362 1.091.679.641.419 1.493.975 2.498 1.552-.457 2.197-1.733 4.419-6.608 3.687z"/></symbol>
        <symbol id="icon-SAYAMA-RS" viewBox="0 0 92 32">
<path fill="#fff" style="fill: var(--color1, #fff)" d="M86.843 2.995v2.419c0 0 0 0.062 0.062 0.062h0.435c0 0 0.062 0 0.062-0.062v-0.806c0.186 0 0.372 0 0.372 0s0.372 0.683 0.372 0.744c0.062 0.062 0.124 0.062 0.124 0.062h0.435c0 0 0 0 0-0.062l-0.435-0.93c0.248-0.125 0.372-0.372 0.372-0.683 0-0.434-0.372-0.806-0.869-0.806h-0.869c0-0.001-0.062-0.001-0.062 0.062zM87.401 3.367h0.372c0.186 0 0.372 0.186 0.372 0.372s-0.186 0.372-0.372 0.372h-0.372v-0.744z"></path>
<path fill="#fff" style="fill: var(--color1, #fff)" d="M84.92 4.173c0 1.55 1.241 2.791 2.792 2.791s2.791-1.241 2.791-2.791c0-1.551-1.241-2.792-2.791-2.792-1.551 0.001-2.792 1.242-2.792 2.792zM89.944 4.173c0 1.241-0.992 2.233-2.233 2.233s-2.234-0.992-2.234-2.233c0-1.241 0.993-2.234 2.234-2.234 1.241 0.001 2.233 0.993 2.233 2.234z"></path>
<path fill="#fff" style="fill: var(--color1, #fff)" d="M49.258 4.422l2.922 17.211h-4.841l-0.399-3.122h-2.655l-0.396 3.122h-4.844l2.921-17.211h7.292zM46.554 15.494v0l-0.941-7.371-0.941 7.371h1.883z"></path>
<path fill="#fff" style="fill: var(--color1, #fff)" d="M81.865 4.422l2.919 17.211h-4.843l-0.399-3.122h-2.651l-0.4 3.122h-4.84l2.919-17.211h7.294zM79.158 15.494v0l-0.941-7.371-0.941 7.371h1.883z"></path>
<path fill="#fff" style="fill: var(--color1, #fff)" d="M25.881 4.422l2.922 17.211h-4.841l-0.399-3.122h-2.652l-0.4 3.122h-4.844l2.922-17.211h7.292zM23.177 15.494v0l-0.941-7.371-0.941 7.371h1.883z"></path>
<path fill="#fff" style="fill: var(--color1, #fff)" d="M36.331 21.633v-6.14l3.732-11.072-4.819 0.004-1.322 6.839-1.322-6.839v-0.004h-4.819l3.731 11.072v6.14h2.41z"></path>
<path fill="#fff" style="fill: var(--color1, #fff)" d="M14.264 8.948c0-1.365-0.155-2.333-0.46-2.903-0.312-0.572-0.941-1.046-1.893-1.423-0.95-0.373-2.095-0.561-3.45-0.561-1.237 0-2.29 0.175-3.164 0.511-0.871 0.346-1.501 0.821-1.893 1.434-0.39 0.609-0.583 1.577-0.583 2.889 0 0.915 0.134 1.665 0.41 2.256 0.273 0.585 0.623 1.049 1.038 1.379 0.421 0.339 1.279 0.867 2.571 1.609 1.29 0.732 2.105 1.249 2.435 1.56 0.318 0.308 0.48 0.974 0.48 1.991 0 0.459-0.087 0.806-0.255 1.038-0.168 0.236-0.425 0.352-0.769 0.352-0.345 0-0.588-0.094-0.726-0.276-0.136-0.187-0.203-0.596-0.203-1.242v-2.098h-4.822v1.126c0 1.29 0.154 2.284 0.455 2.989 0.308 0.701 0.951 1.279 1.936 1.729 0.981 0.456 2.17 0.685 3.559 0.685 1.27 0 2.378-0.197 3.336-0.59 0.951-0.389 1.595-0.883 1.929-1.462 0.333-0.581 0.501-1.481 0.501-2.711 0-1.686-0.299-2.908-0.905-3.668-0.601-0.754-2.056-1.725-4.366-2.907-0.803-0.417-1.298-0.762-1.47-1.053-0.182-0.29-0.269-0.726-0.269-1.301 0-0.443 0.077-0.781 0.238-0.993 0.164-0.228 0.396-0.333 0.706-0.333 0.292 0 0.498 0.080 0.623 0.242 0.122 0.164 0.189 0.544 0.189 1.139v1.276h4.823v-0.684z"></path>
<path fill="#fff" style="fill: var(--color1, #fff)" d="M63.47 21.633l1.912-11.35v11.35h4.82v-17.211h-6.977l-1.322 6.843-1.323-6.843h-6.977v17.211h4.822v-11.35l1.911 11.35h1.568z"></path>
<path fill="#fff" style="fill: var(--color1, #fff)" d="M2.834 30.099v-5.095h0.487v4.685h2.349v0.41h-2.835z"></path>
<path fill="#fff" style="fill: var(--color1, #fff)" d="M7.317 28.434c0 0.429 0.119 0.76 0.358 0.992s0.582 0.348 1.028 0.348c0.445 0 0.786-0.116 1.024-0.348s0.357-0.562 0.357-0.992v-3.43h0.487v3.43c0 0.565-0.159 0.997-0.48 1.298s-0.782 0.452-1.388 0.452-1.069-0.151-1.39-0.452c-0.322-0.301-0.483-0.733-0.483-1.298v-3.43h0.485v3.43z"></path>
<path fill="#fff" style="fill: var(--color1, #fff)" d="M12.129 30.099l1.625-2.603-1.519-2.49h0.532l1.256 2.053 1.256-2.053h0.511l-1.504 2.463 1.651 2.631h-0.554l-1.374-2.228-1.367 2.228h-0.513z"></path>
<path fill="#fff" style="fill: var(--color1, #fff)" d="M17.975 28.434c0 0.429 0.119 0.76 0.358 0.992s0.582 0.348 1.028 0.348c0.445 0 0.786-0.116 1.024-0.348s0.357-0.562 0.357-0.992v-3.43h0.487v3.43c0 0.565-0.159 0.997-0.48 1.298-0.319 0.301-0.782 0.452-1.388 0.452s-1.069-0.151-1.39-0.452c-0.322-0.301-0.483-0.733-0.483-1.298v-3.43h0.485v3.43z"></path>
<path fill="#fff" style="fill: var(--color1, #fff)" d="M24.883 25.004c0.622 0 1.091 0.116 1.404 0.348 0.315 0.232 0.471 0.578 0.471 1.037 0 0.344-0.088 0.628-0.263 0.849s-0.436 0.381-0.783 0.477l1.263 2.384h-0.55l-1.221-2.315h-1.295v2.315h-0.487v-5.095h1.46zM24.95 25.414h-1.039v1.971h1.185c0.372 0 0.657-0.085 0.858-0.256s0.299-0.415 0.299-0.732c0-0.333-0.108-0.581-0.322-0.74-0.213-0.164-0.54-0.243-0.981-0.243z"></path>
<path fill="#fff" style="fill: var(--color1, #fff)" d="M29.79 30.099v-2.087l-1.607-3.008h0.515l1.323 2.442 1.344-2.442h0.515l-1.603 3.008v2.087h-0.487z"></path>
<path fill="#fff" style="fill: var(--color1, #fff)" d="M37.864 25.004c0.623 0 1.090 0.116 1.404 0.348s0.471 0.578 0.471 1.037c0 0.344-0.088 0.628-0.263 0.849s-0.436 0.381-0.785 0.477l1.263 2.384h-0.55l-1.221-2.315h-1.295v2.315h-0.485v-5.095h1.46zM37.931 25.414h-1.039v1.971h1.185c0.371 0 0.657-0.085 0.858-0.256s0.299-0.415 0.299-0.732c0-0.333-0.106-0.581-0.32-0.74-0.214-0.164-0.541-0.243-0.982-0.243z"></path>
<path fill="#fff" style="fill: var(--color1, #fff)" d="M44.822 29.689v0.41h-3.118v-5.095h3.009v0.41h-2.524v1.785h1.825v0.41h-1.825v2.080h2.633z"></path>
<path fill="#fff" style="fill: var(--color1, #fff)" d="M45.921 30.099l1.642-5.095h0.653l1.642 5.095h-0.501l-0.525-1.67h-1.916l-0.525 1.67h-0.471zM47.046 28.017h1.663l-0.827-2.687-0.837 2.687z"></path>
<path fill="#fff" style="fill: var(--color1, #fff)" d="M51.522 30.099v-5.095h0.487v4.685h2.349v0.41h-2.835z"></path>
<path fill="#fff" style="fill: var(--color1, #fff)" d="M61.907 29.689v0.41h-3.119v-5.095h3.009v0.41h-2.522v1.785h1.825v0.41h-1.825v2.080h2.633z"></path>
<path fill="#fff" style="fill: var(--color1, #fff)" d="M63.145 28.879l0.422-0.169c0.141 0.362 0.323 0.631 0.544 0.804s0.492 0.26 0.814 0.26c0.332 0 0.597-0.091 0.8-0.273 0.201-0.182 0.304-0.42 0.304-0.716 0-0.236-0.066-0.431-0.199-0.583s-0.357-0.292-0.674-0.418c-0.172-0.067-0.401-0.147-0.687-0.241s-0.467-0.164-0.548-0.21c-0.253-0.143-0.432-0.294-0.54-0.455-0.106-0.161-0.159-0.36-0.159-0.596 0-0.422 0.133-0.755 0.401-0.997s0.635-0.364 1.104-0.364c0.417 0 0.76 0.099 1.031 0.298s0.477 0.504 0.62 0.915l-0.411 0.127c-0.13-0.318-0.298-0.551-0.502-0.702s-0.457-0.228-0.757-0.228c-0.291 0-0.527 0.081-0.708 0.245s-0.271 0.375-0.271 0.638c0 0.197 0.059 0.364 0.176 0.499s0.298 0.246 0.544 0.33c0.095 0.035 0.232 0.081 0.411 0.141 0.516 0.169 0.848 0.305 0.997 0.403 0.239 0.151 0.413 0.318 0.519 0.498 0.108 0.18 0.162 0.393 0.162 0.639 0 0.446-0.145 0.8-0.435 1.065s-0.681 0.396-1.176 0.396c-0.445 0-0.811-0.106-1.098-0.318-0.288-0.211-0.516-0.541-0.684-0.989z"></path>
<path fill="#fff" style="fill: var(--color1, #fff)" d="M69.29 30.099v-4.685h-1.554v-0.41h3.598v0.41h-1.554v4.685h-0.49z"></path>
<path fill="#fff" style="fill: var(--color1, #fff)" d="M71.929 30.099l1.642-5.095h0.653l1.642 5.095h-0.501l-0.525-1.67h-1.916l-0.525 1.67h-0.471zM73.055 28.017h1.663l-0.827-2.687-0.837 2.687z"></path>
<path fill="#fff" style="fill: var(--color1, #fff)" d="M78.018 30.099v-4.685h-1.554v-0.41h3.598v0.41h-1.554v4.685h-0.49z"></path>
<path fill="#fff" style="fill: var(--color1, #fff)" d="M84.773 29.689v0.41h-3.119v-5.095h3.009v0.41h-2.522v1.785h1.826v0.41h-1.826v2.080h2.633z"></path>
</symbol>
<symbol id="icon-hOne_sv_3" viewBox="0 0 38 32">
<path fill="#fff" style="fill: var(--color1, #fff)" d="M22.259 15.484h-1.023v-2.677c0-2.81-1.975-5.095-4.403-5.095s-4.403 2.286-4.403 5.095v2.677h-1.023c-0.36 0-0.652 0.338-0.652 0.755v11.131c0 0.417 0.292 0.755 0.652 0.755h10.853c0.36 0 0.652-0.338 0.652-0.755v-11.131c0-0.417-0.292-0.755-0.652-0.755zM13.734 12.806c0-1.977 1.39-3.585 3.098-3.585s3.098 1.608 3.098 3.585v2.677h-6.197v-2.677zM21.607 26.614h-9.548v-9.621h9.548v9.621z"></path>
<path fill="#fff" style="fill: var(--color1, #fff)" d="M16.18 22.784v1.834c0 0.417 0.292 0.755 0.652 0.755s0.652-0.338 0.652-0.755v-1.834c0.788-0.314 1.357-1.181 1.357-2.198 0-1.282-0.901-2.325-2.009-2.325s-2.009 1.043-2.009 2.325c0 1.018 0.568 1.884 1.357 2.198zM16.833 19.771c0.388 0 0.704 0.366 0.704 0.815s-0.316 0.815-0.704 0.815-0.704-0.366-0.704-0.815c0-0.449 0.316-0.815 0.704-0.815z"></path>
<path fill="#fff" style="fill: var(--color1, #fff)" d="M37.325 9.088c-0.342-0.501-0.854-0.789-1.406-0.789h-2.254v-2.715c0-1.056-0.743-1.916-1.656-1.916h-15.755c-0.108 0-0.205-0.079-0.242-0.197l-0.677-2.193c-0.228-0.738-0.836-1.234-1.513-1.234h-7.898c-0.677 0-1.285 0.496-1.513 1.234l-0.677 2.193c-0.036 0.118-0.134 0.197-0.242 0.197h-1.836c-0.913-0-1.656 0.859-1.656 1.916v24.454c0 1.056 0.743 1.916 1.656 1.916h30.354c0.88 0 1.6-0.799 1.651-1.803l4-19.298c0.129-0.621 0.007-1.265-0.335-1.766zM32.36 30.039c0 0.224-0.157 0.406-0.351 0.406h-30.354c-0.193 0-0.351-0.182-0.351-0.406v-24.454c0-0.224 0.157-0.406 0.351-0.406h1.836c0.658 0 1.249-0.482 1.471-1.199l0.677-2.193c0.043-0.139 0.157-0.232 0.285-0.232h7.898c0.127 0 0.242 0.093 0.285 0.232l0.677 2.193c0.222 0.717 0.813 1.199 1.471 1.199h15.755c0.193 0 0.351 0.182 0.351 0.406v24.454zM36.391 10.502l-2.726 13.152v-13.845h2.254c0.205 0 0.327 0.134 0.381 0.214s0.139 0.248 0.091 0.479z"></path>
</symbol>
<symbol id="icon-hOne_sv_1" viewBox="0 0 27 32">
<path fill="#fff" style="fill: var(--color1, #fff)" d="M26.689 28.485l-4.237-10.228c-0.108-0.26-0.407-0.384-0.667-0.276s-0.384 0.407-0.276 0.667l3.83 9.246-3.493-1.012c-0.229-0.067-0.474 0.035-0.589 0.244l-1.755 3.186-4.109-9.921c4.743-0.915 8.337-5.096 8.337-10.102 0-5.673-4.615-10.289-10.289-10.289s-10.289 4.616-10.289 10.289c0 2.298 0.757 4.422 2.035 6.137l-4.995 12.060c-0.075 0.181-0.040 0.39 0.091 0.536s0.334 0.205 0.523 0.15l4.121-1.194 2.070 3.759c0.090 0.164 0.262 0.264 0.447 0.264 0.009 0 0.019-0 0.028-0.001 0.196-0.011 0.368-0.133 0.444-0.314l3.958-9.556c0.108-0.26-0.016-0.559-0.276-0.667s-0.559 0.016-0.667 0.276l-3.552 8.574-1.754-3.186c-0.115-0.209-0.36-0.311-0.589-0.244l-3.493 1.012 4.385-10.585c1.879 2.010 4.552 3.268 7.514 3.268 0.306 0 0.608-0.014 0.907-0.040l4.617 11.147c0.075 0.181 0.248 0.304 0.444 0.314 0.009 0 0.019 0.001 0.028 0.001 0.185 0 0.357-0.101 0.447-0.264l2.070-3.759 4.121 1.194c0.189 0.055 0.392-0.004 0.523-0.15s0.166-0.355 0.091-0.536zM4.172 10.289c0-5.11 4.157-9.268 9.268-9.268s9.268 4.157 9.268 9.268-4.157 9.268-9.268 9.268c-5.11 0-9.268-4.157-9.268-9.268z"></path>
<path fill="#fff" style="fill: var(--color1, #fff)" d="M19.34 8.372c-0.059-0.181-0.213-0.314-0.401-0.346l-3.436-0.577-1.61-3.090c-0.088-0.169-0.263-0.275-0.453-0.275s-0.365 0.106-0.453 0.275l-1.61 3.090-3.436 0.577c-0.188 0.031-0.342 0.165-0.401 0.346s-0.012 0.38 0.121 0.516l2.441 2.486-0.513 3.446c-0.028 0.188 0.051 0.376 0.205 0.488s0.357 0.129 0.528 0.044l3.119-1.553 3.119 1.553c0.072 0.036 0.15 0.053 0.228 0.053 0.106 0 0.211-0.033 0.3-0.097 0.154-0.112 0.233-0.3 0.205-0.488l-0.513-3.446 2.441-2.486c0.133-0.136 0.18-0.335 0.121-0.516zM15.871 10.839c-0.112 0.114-0.164 0.275-0.141 0.433l0.406 2.728-2.469-1.23c-0.072-0.036-0.15-0.054-0.228-0.054s-0.156 0.018-0.228 0.054l-2.469 1.23 0.406-2.728c0.024-0.158-0.028-0.319-0.141-0.433l-1.933-1.968 2.72-0.457c0.158-0.027 0.294-0.126 0.368-0.268l1.275-2.446 1.275 2.446c0.074 0.142 0.21 0.241 0.368 0.268l2.721 0.457-1.933 1.968z"></path>
<path fill="#fff" style="fill: var(--color1, #fff)" d="M21.175 10.804c-0.28-0.037-0.536 0.16-0.573 0.439-0.474 3.575-3.553 6.271-7.162 6.271-3.984 0-7.225-3.241-7.225-7.225s3.241-7.225 7.225-7.225c3.609 0 6.688 2.696 7.162 6.271 0.037 0.28 0.294 0.477 0.573 0.439s0.476-0.294 0.439-0.573c-0.541-4.081-4.055-7.158-8.174-7.158-4.547 0-8.246 3.699-8.246 8.246s3.699 8.246 8.246 8.246c4.12 0 7.634-3.077 8.174-7.158 0.037-0.28-0.16-0.536-0.439-0.573z"></path>
</symbol>
<symbol id="icon-hOne_sv_2" viewBox="0 0 27 32">
<path fill="#fff" style="fill: var(--color1, #fff)" d="M17.927 0h-17.287v32h25.067v-24.221l-7.779-7.779zM18.24 1.821l5.646 5.646h-5.646v-5.646zM1.707 30.933v-29.867h15.467v7.467h7.467v22.4h-22.933z"></path>
<path fill="#fff" style="fill: var(--color1, #fff)" d="M19.84 11.2h-8.533c-0.294 0-0.533 0.238-0.533 0.533s0.239 0.533 0.533 0.533h8.533c0.294 0 0.533-0.238 0.533-0.533s-0.239-0.533-0.533-0.533z"></path>
<path fill="#fff" style="fill: var(--color1, #fff)" d="M9.373 9.717l-2.294 1.835-0.729-0.729c-0.209-0.209-0.546-0.209-0.754 0s-0.209 0.546 0 0.754l1.067 1.067c0.103 0.103 0.24 0.156 0.377 0.156 0.117 0 0.235-0.038 0.333-0.117l2.667-2.133c0.23-0.185 0.267-0.52 0.083-0.75s-0.519-0.267-0.749-0.083z"></path>
<path fill="#fff" style="fill: var(--color1, #fff)" d="M19.84 17.067h-8.533c-0.294 0-0.533 0.238-0.533 0.533s0.239 0.533 0.533 0.533h8.533c0.294 0 0.533-0.238 0.533-0.533s-0.239-0.533-0.533-0.533z"></path>
<path fill="#fff" style="fill: var(--color1, #fff)" d="M9.373 15.584l-2.294 1.835-0.729-0.729c-0.209-0.209-0.546-0.209-0.754 0s-0.209 0.546 0 0.754l1.067 1.067c0.103 0.103 0.24 0.156 0.377 0.156 0.117 0 0.235-0.038 0.333-0.117l2.667-2.133c0.23-0.184 0.267-0.52 0.083-0.75s-0.519-0.267-0.749-0.083z"></path>
<path fill="#fff" style="fill: var(--color1, #fff)" d="M19.84 22.933h-8.533c-0.294 0-0.533 0.238-0.533 0.533s0.239 0.533 0.533 0.533h8.533c0.294 0 0.533-0.238 0.533-0.533s-0.239-0.533-0.533-0.533z"></path>
<path fill="#fff" style="fill: var(--color1, #fff)" d="M9.373 21.45l-2.294 1.835-0.729-0.729c-0.209-0.209-0.546-0.209-0.754 0s-0.209 0.546 0 0.754l1.067 1.067c0.103 0.103 0.24 0.156 0.377 0.156 0.117 0 0.235-0.038 0.333-0.117l2.667-2.133c0.23-0.184 0.267-0.52 0.083-0.75s-0.519-0.267-0.749-0.083z"></path>
</symbol>
<symbol id="icon-WEQ" viewBox="0 0 20 32">
<path fill="none" stroke="#fff" style="stroke: var(--color1, #fff)" stroke-linejoin="miter" stroke-linecap="butt" stroke-miterlimit="10" stroke-width="0.5694" d="M0.968 24.028v-15.374c0 0 0.797-6.833 8.826-6.833 8.313 0 8.826 6.833 8.826 6.833v15.374c0 2.847-3.189 6.833-8.826 6.833-5.125 0-8.826-3.929-8.826-6.833z"></path>
<path fill="none" stroke="#fff" style="stroke: var(--color1, #fff)" stroke-linejoin="miter" stroke-linecap="butt" stroke-miterlimit="10" stroke-width="0.5694" d="M9.794 5.238v7.972"></path>
</symbol>
    </defs>
</svg>