<svg aria-hidden="true" style="position:absolute;width:0;height:0;overflow:hidden" xmlns="http://www.w3.org/2000/svg">
    <defs>
        <symbol id="icon-customer" viewBox="0 0 32 32"><path fill="#fff" style="fill:var(--color1, #fff)" d="M30.999 15.787c-1.07-.882-2.761-.957-3.871.234l-2.755 2.958A2.818 2.818 0 0 0 21.687 17H16.77c-.373 0-.498-.142-1.146-.642a6.576 6.576 0 0 0-8.646.021L5.171 17.97a2.798 2.798 0 0 0-2.578-.032L.52 18.974a.938.938 0 0 0-.419 1.258l5.625 11.249a.938.938 0 0 0 1.258.419l2.073-1.037a2.81 2.81 0 0 0 1.554-2.614h11.078a6.594 6.594 0 0 0 5.25-2.625l4.5-6.001c.873-1.163.735-2.869-.438-3.837zm-22.783 13.4-1.234.617-4.787-9.572 1.235-.617a.937.937 0 0 1 1.257.419l3.948 7.896a.937.937 0 0 1-.419 1.257zm21.721-10.689-4.5 6.001a4.71 4.71 0 0 1-3.75 1.875H9.955l-3.513-7.026 1.774-1.562a4.698 4.698 0 0 1 6.193 0c1.04.916 1.687 1.089 2.361 1.089h4.917c.517 0 .937.421.937.937s-.421.937-.937.937h-4.788a.937.937 0 1 0 0 1.874h5.416c.778 0 1.528-.326 2.058-.896l4.127-4.43a.938.938 0 0 1 1.437 1.2zM19.712 6.398a3.733 3.733 0 0 0 1.037-2.585c0-2.064-1.667-3.812-3.75-3.812-2.067 0-3.812 1.746-3.812 3.812a3.68 3.68 0 0 0 1.072 2.592c-1.714.961-2.947 2.806-2.947 4.97v.937c0 .517.42.937.937.937h9.437c.517 0 .937-.42.937-.937v-.937a5.715 5.715 0 0 0-2.912-4.977zm-2.713-4.522c1.016 0 1.875.887 1.875 1.937a1.877 1.877 0 0 1-1.875 1.875c-1.05 0-1.937-.859-1.937-1.875 0-1.032.906-1.937 1.937-1.937zm-3.812 9.499c0-2.067 1.746-3.812 3.812-3.812s3.75 1.71 3.75 3.812h-7.562z"/></symbol>
        <symbol id="icon-enterprise" viewBox="0 0 32 32"><path fill="#fff" style="fill:var(--color1, #fff);stroke:var(--color1, #fff)" stroke="#fff" stroke-width=".32" d="M12.427 10.667v-.16H11.04v1.387h1.387v-1.227zM12.427 12.8v-.16H11.04v1.387h1.387V12.8zM12.427 14.933v-.16H11.04v1.387h1.387v-1.227zM12.427 17.067v-.16H11.04v1.387h1.387v-1.227zM14.56 10.667v-.16h-1.387v1.387h1.387v-1.227zM14.56 12.8v-.16h-1.387v1.387h1.387V12.8zM14.56 14.933v-.16h-1.387v1.387h1.387v-1.227zM14.56 17.067v-.16h-1.387v1.387h1.387v-1.227zM16.693 10.667v-.16h-1.387v1.387h1.387v-1.227zM16.693 12.8v-.16h-1.387v1.387h1.387V12.8zM16.693 14.933v-.16h-1.387v1.387h1.387v-1.227zM16.693 17.067v-.16h-1.387v1.387h1.387v-1.227zM18.827 10.667v-.16H17.44v1.387h1.387v-1.227zM14.56 8.533v-.16h-1.387V9.76h1.387V8.533zM16.693 8.533v-.16h-1.387V9.76h1.387V8.533zM18.827 8.533v-.16H17.44V9.76h1.387V8.533zM18.827 12.8v-.16H17.44v1.387h1.387V12.8zM18.827 14.933v-.16H17.44v1.387h1.387v-1.227zM18.827 17.067v-.16H17.44v1.387h1.387v-1.227zM20.96 10.667v-.16h-1.387v1.387h1.387v-1.227zM20.96 12.8v-.16h-1.387v1.387h1.387V12.8zM20.96 14.933v-.16h-1.387v1.387h1.387v-1.227zM20.96 17.067v-.16h-1.387v1.387h1.387v-1.227z"/><path fill="#fff" style="fill:var(--color1, #fff)" d="M31.467 8h-8.001V.533A.533.533 0 0 0 22.933 0H9.065a.533.533 0 0 0-.533.533v7.468h-8a.533.533 0 0 0-.533.533v19.201c0 .294.238.533.533.533H1.648a3.182 3.182 0 0 0-.048.533v2.667c0 .294.238.533.533.533h27.734a.533.533 0 0 0 .533-.533V28.8a3.172 3.172 0 0 0-.048-.533h1.115a.533.533 0 0 0 .533-.533V8.533A.533.533 0 0 0 31.467 8zm-8.534 14.933a1.067 1.067 0 1 1-2.135 0 1.067 1.067 0 0 1 2.135 0zm-12.8-1.066a1.067 1.067 0 1 1 0 2.135 1.067 1.067 0 0 1 0-2.135zm-3.2 9.066H2.666V28.8a2.133 2.133 0 0 1 4.266 0v2.133zm-3.2-6.4a1.067 1.067 0 1 1 2.135 0 1.067 1.067 0 0 1-2.135 0zm3.281 1.962a3.233 3.233 0 0 0-.671-.497 2.134 2.134 0 1 0-3.086 0A3.225 3.225 0 0 0 2.033 27.2h-.966V9.067h7.467v12.47a2.104 2.104 0 0 0 .057 2.861 3.208 3.208 0 0 0-1.576 2.097zm5.253 4.438H8V27.2a2.133 2.133 0 0 1 4.266 0v3.733zm6.4 0h-5.333V27.2a2.667 2.667 0 1 1 5.334 0v3.733zM14.4 21.867a1.6 1.6 0 1 1 3.2 0 1.6 1.6 0 0 1-3.2 0zm4.848 3.499a3.746 3.746 0 0 0-1.53-1.477 2.667 2.667 0 1 0-3.436 0 3.758 3.758 0 0 0-1.53 1.477 3.22 3.22 0 0 0-1.075-.968 2.118 2.118 0 0 0-2.076-3.523V1.066h12.8v19.809a2.137 2.137 0 0 0-.533-.076 2.127 2.127 0 0 0-1.543 3.598 3.22 3.22 0 0 0-1.075.968zM24 28.8v2.133h-4.267V27.2a2.133 2.133 0 0 1 4.266 0v1.6zm5.333 2.133h-4.267V28.8a2.133 2.133 0 0 1 4.266 0v2.133zm-3.2-6.4a1.067 1.067 0 1 1 2.135 0 1.067 1.067 0 0 1-2.135 0zm4.8 2.667h-.966a3.225 3.225 0 0 0-1.224-1.202 2.134 2.134 0 1 0-3.086 0c-.244.136-.47.303-.671.497a3.21 3.21 0 0 0-1.576-2.097c.764-.792.789-2.04.057-2.861V9.067h7.467V27.2z"/><path fill="none" stroke="#fff" style="stroke:var(--color1, #fff)" stroke-width=".64" d="M31.467 8h-8.001V.533A.533.533 0 0 0 22.933 0H9.065a.533.533 0 0 0-.533.533v7.468h-8a.533.533 0 0 0-.533.533v19.201c0 .294.238.533.533.533H1.648a3.182 3.182 0 0 0-.048.533v2.667c0 .294.238.533.533.533h27.734a.533.533 0 0 0 .533-.533V28.8a3.172 3.172 0 0 0-.048-.533h1.115a.533.533 0 0 0 .533-.533V8.533A.533.533 0 0 0 31.467 8zm-8.534 14.933a1.067 1.067 0 1 1-2.135 0 1.067 1.067 0 0 1 2.135 0zm-12.8-1.066a1.067 1.067 0 1 1 0 2.135 1.067 1.067 0 0 1 0-2.135zm-3.2 9.066H2.666V28.8a2.133 2.133 0 0 1 4.266 0v2.133zm-3.2-6.4a1.067 1.067 0 1 1 2.135 0 1.067 1.067 0 0 1-2.135 0zm3.281 1.962a3.233 3.233 0 0 0-.671-.497 2.134 2.134 0 1 0-3.086 0A3.225 3.225 0 0 0 2.033 27.2h-.966V9.067h7.467v12.47a2.104 2.104 0 0 0 .057 2.861 3.208 3.208 0 0 0-1.576 2.097zm5.253 4.438H8V27.2a2.133 2.133 0 0 1 4.266 0v3.733zm6.4 0h-5.333V27.2a2.667 2.667 0 1 1 5.334 0v3.733zM14.4 21.867a1.6 1.6 0 1 1 3.2 0 1.6 1.6 0 0 1-3.2 0zm4.848 3.499a3.746 3.746 0 0 0-1.53-1.477 2.667 2.667 0 1 0-3.436 0 3.758 3.758 0 0 0-1.53 1.477 3.22 3.22 0 0 0-1.075-.968 2.118 2.118 0 0 0-2.076-3.523V1.066h12.8v19.809a2.137 2.137 0 0 0-.533-.076 2.127 2.127 0 0 0-1.543 3.598 3.22 3.22 0 0 0-1.075.968zM24 28.8v2.133h-4.267V27.2a2.133 2.133 0 0 1 4.266 0v1.6zm5.333 2.133h-4.267V28.8a2.133 2.133 0 0 1 4.266 0v2.133zm-3.2-6.4a1.067 1.067 0 1 1 2.135 0 1.067 1.067 0 0 1-2.135 0zm4.8 2.667h-.966a3.225 3.225 0 0 0-1.224-1.202 2.134 2.134 0 1 0-3.086 0c-.244.136-.47.303-.671.497a3.21 3.21 0 0 0-1.576-2.097c.764-.792.789-2.04.057-2.861V9.067h7.467V27.2z"/><path fill="#fff" style="fill:var(--color1, #fff);stroke:var(--color1, #fff)" stroke="#fff" stroke-width=".32" d="M26.293 12.267v-.16h-1.387v8.853h1.387v-8.693zM29.493 12.267v-.16h-1.387v8.853h1.387v-8.693zM3.893 12.267v-.16H2.506v8.853h1.387v-8.693zM7.093 12.267v-.16H5.706v8.853h1.387v-8.693zM19.893 2.667a.693.693 0 0 0-.693-.693l-.001 5.493v.16c.383 0 .693-.31.693-.693V2.667zm0 0zm-7.786 4.266zm.693-4.96zm5.707 4.267h-5.013V3.36h5.013v2.88z"/></symbol>
        <symbol id="icon-secure" viewBox="0 0 32 32"><path fill="#fff" style="fill:var(--color1, #fff)" d="M30.749 4.062V1.251H14.751V0H0v32h32V4.062h-1.251zm-15.998-.936h14.123v.936H14.751v-.936zm15.374 26.999H1.875V1.875h11.001v4.062h17.249v24.187z"/><path fill="#fff" style="fill:var(--color1, #fff)" d="M21.362 16.25v-3.701c0-2.956-2.405-5.362-5.362-5.362s-5.362 2.405-5.362 5.362v3.701H8.353v12.626h15.293V16.25h-2.285zm-8.849-3.701c0-1.923 1.564-3.487 3.487-3.487s3.487 1.564 3.487 3.487v3.701h-6.973v-3.701zM21.771 27H10.228v-8.875h11.543V27z"/><path fill="#fff" style="fill:var(--color1, #fff)" d="M16 19.109a2.574 2.574 0 0 0-2.571 2.571c0 1.087.678 2.018 1.634 2.394v2.048h1.875v-2.048a2.575 2.575 0 0 0 1.634-2.394 2.573 2.573 0 0 0-2.571-2.571zm0 3.267a.697.697 0 1 1 .001-1.393.697.697 0 0 1-.001 1.393z"/></symbol>
        <symbol id="icon-s4-sunset" viewBox="0 0 32 32"><path d="M18.141 17.793a5.33 5.33 0 1 0 10.66 0 5.33 5.33 0 0 0-10.66 0zm5.33-4.263a4.264 4.264 0 1 1 0 8.528 4.264 4.264 0 0 1 0-8.528zM20.425 30.914h6.091v1.066h-6.091v-1.066zM18.141 28.782h10.66v1.066h-10.66v-1.066zM6.416 28.782h1.066v1.066H6.416v-1.066zM3.218 29.848h1.066v1.066H3.218v-1.066z"/><path d="M6.469 25.783a40.372 40.372 0 0 0 5.128-15.776l4.957 4.927a.532.532 0 0 0 .85-.14 5.203 5.203 0 0 0-.976-6.013l-.436-.436h3.749a.533.533 0 0 0 .506-.702 5.204 5.204 0 0 0-4.943-3.562h-.693l2.662-2.677a.533.533 0 0 0-.14-.853 5.204 5.204 0 0 0-6.017.976l-.509.509c-.166.167-.32.345-.462.533a5.048 5.048 0 0 0-.458-.533l-.509-.509A5.203 5.203 0 0 0 3.165.551a.534.534 0 0 0-.14.853L5.69 4.081h-.7A5.204 5.204 0 0 0 .047 7.643a.532.532 0 0 0 .506.702h3.745l-.436.436a5.203 5.203 0 0 0-.977 6.013.536.536 0 0 0 .853.14l4.616-4.588a28.89 28.89 0 0 1-5.572 14.085 19.907 19.907 0 0 0-2.175-.443l-.333-.034-.107 1.061.311.03c.533.076 1.063.184 1.589.306-.107.134-.213.27-.324.401l.817.684A30.005 30.005 0 0 0 9.532 9.173l.613-.61.459.457a38.961 38.961 0 0 1-6.759 18.92l.873.611c.419-.598.819-1.219 1.206-1.852a18.906 18.906 0 0 1 6.449 5.052l.824-.675a19.909 19.909 0 0 0-3.539-3.361h22.338v-1.066H8.079a19.805 19.805 0 0 0-1.612-.867zm10.262-12.176L11.1 8.008a4.111 4.111 0 0 1 4.069 1.018l.509.509a4.14 4.14 0 0 1 1.054 4.072zm2.196-6.327h-4.413a5.196 5.196 0 0 0-3.301-.394 4.133 4.133 0 0 1 3.369-1.738h.719a4.139 4.139 0 0 1 3.626 2.132zm-7.568-4.489.509-.509a4.143 4.143 0 0 1 4.074-1.054l-3.159 3.178a5.192 5.192 0 0 0-2.516 1.975 4.034 4.034 0 0 1 1.094-3.59h-.002zm-2.936-.509.509.509c.237.242.443.514.613.807a5.082 5.082 0 0 0-.407 1.772 5.21 5.21 0 0 0-1.626-.964l-3.16-3.178a4.14 4.14 0 0 1 4.072 1.054h-.001zM4.989 5.148h.72a4.134 4.134 0 0 1 3.372 1.737 5.201 5.201 0 0 0-3.3.395H1.366A4.14 4.14 0 0 1 4.99 5.148h-.002zm-1.426 8.459a4.14 4.14 0 0 1 1.054-4.072l.509-.509a4.071 4.071 0 0 1 2.89-1.189c.4 0 .797.057 1.181.169l-5.634 5.601z"/></symbol>
        <symbol id="icon-s4-bars" viewBox="0 0 32 32"><path stroke-width=".41" d="M30.756 6.906a4.195 4.195 0 0 1-4.198 4.198 4.172 4.172 0 0 1-4.198-4.171c0-2.323 1.879-4.226 4.198-4.226a4.195 4.195 0 0 1 4.198 4.198zm-.575.027a3.625 3.625 0 1 0-7.25.001 3.625 3.625 0 0 0 7.25-.001z"/><path d="m12.456 14.016-.016-.007-.014.01-6.536 4.677a.433.433 0 0 1-.256.077c-.131 0-.282-.052-.356-.177l-.002-.003a.454.454 0 0 1 .103-.64l6.756-4.814c.125-.1.277-.102.435-.05l6.306 2.632.014-.011 4.868-3.856c.207-.155.488-.128.64.076.155.207.128.488-.076.641l-.001.001-5.087 4.021c-.125.1-.304.102-.462.05l-6.317-2.625z"/><path d="M31.508 28.373h-2.212V14.455a.522.522 0 0 0-.523-.523h-4.431a.52.52 0 0 0-.523.523v13.918H22.24v-9.104a.522.522 0 0 0-.523-.523h-4.403a.52.52 0 0 0-.523.523v9.104h-1.579v-9.815a.52.52 0 0 0-.523-.523h-4.431a.522.522 0 0 0-.523.523v9.815H8.156v-6.998a.52.52 0 0 0-.523-.523H3.23a.522.522 0 0 0-.523.523v6.998H.495c-.29 0-.523.233-.523.523s.233.523.523.523H31.51a.52.52 0 0 0 .523-.523.539.539 0 0 0-.523-.523zM24.865 14.95h3.412v13.422h-3.412V14.95zm-7.056 4.841h3.412v8.581h-3.412v-8.581zm-7.029-.738h3.412v9.292H10.78v-9.292zM3.75 21.87h3.412v6.475H3.75V21.87z"/></symbol>
        <symbol id="icon-s4-dohod" viewBox="0 0 32 32"><path d="M22 27.5h-8c-.238 0-.46.061-.659.16.099-.2.159-.422.159-.66v-1c0-.386-.15-.734-.39-1 .24-.266.39-.614.39-1v-1c0-.827-.673-1.5-1.5-1.5h-.274a7.543 7.543 0 0 0 2.573-2.444A10.44 10.44 0 0 0 21 21.5c5.79 0 10.5-4.71 10.5-10.5S26.79.5 21 .5c-4.736 0-8.79 3.095-10.076 7.593A7.459 7.459 0 0 0 8 7.499c-4.136 0-7.5 3.364-7.5 7.5 0 2.779 1.523 5.204 3.774 6.5h-.275c-.827 0-1.5.673-1.5 1.5v1c0 .386.151.734.39 1-.24.266-.39.614-.39 1v1c0 .386.151.734.39 1-.24.266-.39.614-.39 1v1c0 .827.673 1.5 1.5 1.5h8c.386 0 .734-.15 1-.39.266.24.614.39 1 .39h8c.827 0 1.5-.673 1.5-1.5v-1c0-.827-.673-1.5-1.5-1.5zm-18 0a.5.5 0 0 1-.5-.5v-1a.5.5 0 0 1 .5-.5h.5v1h1v-1h1v1h1v-1h1v1h1v-1h1v1h1v-1h.5a.5.5 0 0 1 .5.5v1a.5.5 0 0 1-.5.5H4zm17-26c5.238 0 9.5 4.262 9.5 9.5s-4.262 9.5-9.5 9.5a9.444 9.444 0 0 1-6.209-2.337c.45-.962.709-2.032.709-3.163 0-2.734-1.476-5.125-3.668-6.436A9.43 9.43 0 0 1 21 1.5zM1.5 15c0-3.584 2.916-6.5 6.5-6.5s6.5 2.916 6.5 6.5-2.916 6.5-6.5 6.5-6.5-2.916-6.5-6.5zm2 8a.5.5 0 0 1 .5-.5h.5v1h1v-1h1v1h1v-1h1v1h1v-1h1v1h1v-1h.5a.5.5 0 0 1 .5.5v1a.5.5 0 0 1-.5.5H4a.5.5 0 0 1-.5-.5v-1zm8.5 7.5H4a.5.5 0 0 1-.5-.5v-1a.5.5 0 0 1 .5-.5h.5v1h1v-1h1v1h1v-1h1v1h1v-1h1v1h1v-1h.5a.5.5 0 0 1 .5.5v1a.5.5 0 0 1-.5.5zm10.5-.5a.5.5 0 0 1-.5.5h-8a.5.5 0 0 1-.5-.5v-1a.5.5 0 0 1 .5-.5h.5v1h1v-1h1v1h1v-1h1v1h1v-1h1v1h1v-1h.5a.5.5 0 0 1 .5.5v1z"/><path d="M8.41 12.835c.339 0 .615.289.615.645h1.231c0-1.066-.828-1.934-1.846-1.934v-1.289H7.179v1.289H5.333v1.934c0 1.066.828 1.934 1.846 1.934H8.41c.339 0 .615.289.615.645v.645H7.179c-.339 0-.615-.289-.615-.645H5.333c0 1.066.828 1.934 1.846 1.934v1.289H8.41v-1.289h1.846v-1.934c0-1.066-.828-1.934-1.846-1.934H7.179c-.339 0-.615-.289-.615-.645v-.645H8.41zM19.125 3.736l-.25-.968a8.529 8.529 0 0 0-5.757 5.044l.927.375a7.532 7.532 0 0 1 5.08-4.452zM21 3.5v-1a8.53 8.53 0 0 0-1.062.066l.124.992c.308-.038.624-.058.938-.058zM24.75 17.497l.501.865A8.53 8.53 0 0 0 29.5 11h-1a7.53 7.53 0 0 1-3.75 6.497zM22.875 18.264l.25.969a8.423 8.423 0 0 0 1.063-.351l-.375-.927a7.44 7.44 0 0 1-.937.308zM21 18.5v1a8.53 8.53 0 0 0 1.062-.066l-.124-.992A7.694 7.694 0 0 1 21 18.5zM25.5 13.5c0-1.103-.897-2-2-2s-2 .897-2 2 .897 2 2 2 2-.897 2-2zm-3 0a1 1 0 1 1 2 0 1 1 0 0 1-2 0zM16.5 8.5c0 1.103.897 2 2 2s2-.897 2-2-.897-2-2-2-2 .897-2 2zm3 0a1 1 0 1 1-2 0 1 1 0 0 1 2 0zM15.644 15.647l9.998-9.998.707.707-9.998 9.998-.707-.707zM22.5 22.5h7v1h-7v-1zM22.5 24.5h7v1h-7v-1zM26.5 26.5h1v1h-1v-1zM28.5 26.5h1v1h-1v-1zM24.5 26.5h1v1h-1v-1z"/></symbol>
        <symbol id="icon-s4-file" viewBox="0 0 32 32"><path d="M22.646 25.395h.062v-1.333h1.21V28a.605.605 0 0 1-.177.428l-3.334 3.333a.601.601 0 0 1-.428.177H2.645c-.701 0-1.272-.57-1.272-1.272V1.332c0-.701.57-1.272 1.272-1.272h20c.701 0 1.272.57 1.272 1.272v5.272h-1.21V1.271H2.584v29.457h14.79V26c0-.335.271-.605.605-.605h4.666zm.043 2.373.018-.018v-1.144h-4.123v4.123h1.144l2.961-2.961z"/><path d="M6.584 13.333v.062h8v1.21H5.979A.605.605 0 0 1 5.374 14V6c0-.335.271-.605.605-.605h13.333c.335 0 .605.271.605.605v1.938h-1.21V6.605H6.584v6.728zM5.374 17.395h6.544v1.21H5.374v-1.21zM13.374 17.395h1.21v1.21h-1.21v-1.21zM5.374 21.395h3.877v1.21H5.374v-1.21zM10.707 21.395h6.544v1.21h-6.544v-1.21zM5.374 25.395h6.544v1.21H5.374v-1.21zM13.374 25.395h2.544v1.21h-2.544v-1.21z"/><path d="M19.918 20.319v.033l.027.018c.964.647 2.122 1.025 3.368 1.025s2.404-.378 3.368-1.025l.027-.018v-.351a2.064 2.064 0 0 0-2.062-2.062H21.98a2.064 2.064 0 0 0-2.062 2.062v.319zm7.899-1.086.028.117.078-.092a6.035 6.035 0 0 0 1.451-3.925c0-3.343-2.719-6.062-6.062-6.062s-6.062 2.719-6.062 6.062a6.03 6.03 0 0 0 1.451 3.925l.078.092.028-.117a3.27 3.27 0 0 1 2.606-2.447l.146-.026-.121-.085a3.262 3.262 0 0 1-1.398-2.674c0-1.804 1.468-3.272 3.272-3.272s3.272 1.468 3.272 3.272a3.264 3.264 0 0 1-1.398 2.674l-.121.085.146.026a3.268 3.268 0 0 1 2.606 2.447zm-11.776-3.9c0-4.009 3.262-7.272 7.272-7.272s7.272 3.262 7.272 7.272c0 4.009-3.262 7.272-7.272 7.272s-7.272-3.262-7.272-7.272zM21.251 14c0 1.137.925 2.062 2.062 2.062s2.062-.925 2.062-2.062-.925-2.062-2.062-2.062A2.064 2.064 0 0 0 21.251 14z"/></symbol>
        <symbol id="icon-s4-investment" viewBox="0 0 32 32"><path fill="none" stroke="#000" style="stroke:var(--color1, #000)" stroke-width=".821" d="M7 29.09C3.643 29.09.91 26.358.91 23S3.642 16.91 7 16.91c3.357 0 6.09 2.732 6.09 6.09S10.358 29.09 7 29.09z"/><path d="M3 17.887a6.48 6.48 0 0 1 1-.648v-5.74H3v6.387z"/><path d="m19.5 11.498-.526.027A9.99 9.99 0 0 0 11 16.239V11.9l.976-.217A4.474 4.474 0 0 0 15.5 7.29V2.248c0-.965-.785-1.75-1.75-1.75S12 1.283 12 2.248v4.484c0 .755-.565 1.395-1.314 1.489l-1.11.139a3.484 3.484 0 0 0 .925-2.362c0-1.93-1.57-3.5-3.5-3.5s-3.5 1.57-3.5 3.5c0 .99.415 1.884 1.079 2.522a4.505 4.505 0 0 0-4.079 4.478v4c0 .912.617 1.674 1.452 1.914.27-.333.571-.64.901-.914h-.353c-.551 0-1-.448-1-1v-4a3.504 3.504 0 0 1 2.574-3.372 12.4 12.4 0 0 0 2.01 5.649l.148.222h1.535l.148-.222A12.379 12.379 0 0 0 9.95 9.319l.86-.106A2.505 2.505 0 0 0 13 6.732V2.247c0-.413.337-.75.75-.75s.75.337.75.75v5.042a3.48 3.48 0 0 1-2.741 3.417L10 11.097v6.14c.141.073.276.156.41.24.081.05.159.104.238.157.094.064.186.128.276.197.092.069.184.136.271.21a8.989 8.989 0 0 1 7.306-5.476v9.225l-5.703 5.703a8.742 8.742 0 0 1-.551-.674 6.649 6.649 0 0 1-.665.785 9.99 9.99 0 0 0 7.919 3.894 9.987 9.987 0 0 0 9.974-9.474l.027-.526H19.5V11.497zM4.5 6c0-1.378 1.121-2.5 2.5-2.5S9.5 4.622 9.5 6 8.379 8.5 7 8.5 4.5 7.378 4.5 6zm1.391 3.5-.199 2.784A11.462 11.462 0 0 1 5.064 9.5h.827zm.88 5c-.073-.116-.139-.236-.209-.354L6.894 9.5h.212l.332 4.645c-.069.119-.135.239-.209.356h-.458zm1.536-2.216-.199-2.785H8.5l.439-.054a11.409 11.409 0 0 1-.632 2.839zM22.7 24.992l2.483-2.492h2.588l-3.775 3.788-1.296-1.297zm-.708-.707L20.207 22.5h3.564l-1.779 1.785zm-8.488 3.918L19 22.707l5.949 5.948A8.95 8.95 0 0 1 19.5 30.5a8.982 8.982 0 0 1-5.996-2.297zM25.707 28l-1.004-1.004 3.581-3.594A8.968 8.968 0 0 1 25.707 28z"/><path d="M21.5 9.5c-.125 0-.248.008-.371.016l-.629.034V20.5h10.95l.034-.629c.008-.123.016-.246.016-.371 0-5.514-4.486-10-10-10zm0 10v-9c4.962 0 9 4.037 9 9h-9z"/><path d="m22.142 18.147 4.499-4.499.707.707-4.499 4.499-.707-.707zM25.5 17.5c0 .827.673 1.5 1.5 1.5s1.5-.673 1.5-1.5S27.827 16 27 16s-1.5.673-1.5 1.5zm2 0a.5.5 0 1 1-1 0 .5.5 0 0 1 1 0zM23.5 15.5c.827 0 1.5-.673 1.5-1.5s-.673-1.5-1.5-1.5-1.5.673-1.5 1.5.673 1.5 1.5 1.5zm0-2a.5.5 0 1 1-.002 1.002.5.5 0 0 1 .002-1.002zM17.166 29.154c.337.103.687.183 1.038.241l.161-.988a6.92 6.92 0 0 1-.908-.211l-.291.957zM20.227 28.463c-.31.032-.625.044-.934.035l-.027 1a8.223 8.223 0 0 0 1.064-.039l-.102-.995zM15.233 28.268c.298.188.613.359.936.508l.419-.908a7.207 7.207 0 0 1-.821-.445l-.534.846zM17.367 13.787a8.037 8.037 0 0 0-4.944 3.979l.884.468a7.024 7.024 0 0 1 4.326-3.482l-.267-.964zM7 20.5c.551 0 1 .448 1 1h1c0-.929-.64-1.705-1.5-1.929V18.5h-1v1H5v2c0 1.103.897 2 2 2 .551 0 1 .449 1 1v1H7c-.551 0-1-.448-1-1H5c0 .929.64 1.705 1.5 1.929V27.5h1v-1H9v-2c0-1.103-.897-2-2-2-.551 0-1-.449-1-1v-1h1zM16.5 21h1v1h-1v-1zM16.5 17h1v1h-1v-1zM16.5 19h1v1h-1v-1z"/></symbol>
        <symbol id="icon-s4-passport" viewBox="0 0 32 32"><path d="M31.413 4.209a.532.532 0 0 0-.303-.273L20.047.031a.533.533 0 0 0-.68.325l-2.513 7.111h-1.099V5.654a1.603 1.603 0 0 0-2.009-1.546L.931 7.495a.524.524 0 0 0-.397.506v22.4a1.6 1.6 0 0 0 1.6 1.6h14.933a1.6 1.6 0 0 0 1.6-1.6v-4.839l4.277 1.51a.532.532 0 0 0 .68-.326l7.812-22.128a.53.53 0 0 0-.023-.408zm-17.395.926a.535.535 0 0 1 .67.516v1.815H5.18l8.839-2.331zM17.6 30.4a.533.533 0 0 1-.533.533H2.134a.533.533 0 0 1-.533-.533V8.533h15.467c.295 0 .533.239.533.533v21.333zm4.384-19.836.683-.324.325.68-2.591 7.334a.535.535 0 0 0 .022.408l.555 1.161-.172.487-1.058-1.095a.534.534 0 0 0-.449-.16l-.632.08v-.715l.455-.218a.532.532 0 0 0 .273-.303l1.067-3.016 1.523-4.319zm1.006 3.56 1.083 1.74-.185.524-1.296-1.134.398-1.13zm-4.323 2.633v-1.466l.525-.022-.525 1.487zm.906-2.571-.907.037v-.71l1.306-.455-.399 1.128zm3.223 11.701-4.129-1.458V20.21l.5-.063 1.474 1.524a.534.534 0 0 0 .886-.196l.533-1.509a.532.532 0 0 0-.022-.407l-.558-1.16.73-2.067 1.567 1.373a.534.534 0 0 0 .855-.224l.533-1.509a.534.534 0 0 0-.05-.459l-1.669-2.682.625-1.77a.535.535 0 0 0-.022-.408l-.651-1.36a.533.533 0 0 0-.711-.251l-1.361.651a.53.53 0 0 0-.272.303l-.626 1.772-1.76.614V9.065a1.594 1.594 0 0 0-.765-1.358l1.067-3.026 1.227-3.467 10.058 3.55-7.458 21.121z"/><path d="m27.004 8.143.355-1.006.915.323-.355 1.006-.915-.323zM19.689 5.56l.355-1.006.914.323-.355 1.006-.914-.323zM25.175 7.497l.355-1.006.914.323-.355 1.006-.914-.323zM21.517 6.206l.355-1.006.914.323-.355 1.006-.914-.323zM23.346 6.851l.355-1.006.914.323-.355 1.006-.914-.323zM9.354 10.667a5.333 5.333 0 1 0 0 10.666 5.333 5.333 0 0 0 0-10.666zm3.852 3.51-.728-.16c-.32-.071-.64-.127-.963-.175a16.306 16.306 0 0 0-.175-.963l-.16-.727a4.287 4.287 0 0 1 2.026 2.025zM5.088 16c.001-.218.019-.436.053-.651l1.319-.293c.202-.045.406-.082.61-.117a14.479 14.479 0 0 0 0 2.124 13.956 13.956 0 0 1-.61-.117l-1.319-.293a4.173 4.173 0 0 1-.053-.651zm3.064-1.201a13.582 13.582 0 0 1 2.403 0c.072.799.072 1.604 0 2.403-.799.072-1.604.072-2.403 0a13.394 13.394 0 0 1 0-2.403zm3.484.139c.204.035.408.072.61.117l1.319.293c.074.431.074.871 0 1.302l-1.319.293c-.202.045-.406.082-.61.118.052-.707.052-1.417 0-2.124zm-1.631-3.151.293 1.32c.045.202.083.406.118.61a14.479 14.479 0 0 0-2.124 0c.035-.204.073-.408.118-.61l.293-1.32a3.898 3.898 0 0 1 1.302 0zm-2.475.36-.16.728c-.07.32-.126.64-.175.963-.323.048-.645.107-.963.175l-.728.16a4.28 4.28 0 0 1 2.026-2.024v-.002zm-2.027 5.675.728.16c.32.07.64.126.963.175.048.323.106.645.175.963l.16.727a4.287 4.287 0 0 1-2.027-2.024l.001-.002zm3.2 2.388-.293-1.32a12.62 12.62 0 0 1-.118-.61c.353.026.708.043 1.063.043s.708-.017 1.062-.043a12.62 12.62 0 0 1-.118.61l-.293 1.32a3.898 3.898 0 0 1-1.302 0zm2.475-.36.16-.728c.071-.32.126-.64.175-.963.323-.048.645-.107.963-.175l.727-.16a4.28 4.28 0 0 1-2.027 2.027l.001-.002zM5.088 25.6h8.533v1.067H5.088V25.6zM6.154 27.733h6.4V28.8h-6.4v-1.067zM8.821 23.467h1.067v1.067H8.821v-1.067zM6.687 23.467h1.067v1.067H6.687v-1.067zM10.954 23.467h1.067v1.067h-1.067v-1.067z"/></symbol>
        <symbol id="icon-envelope" viewBox="0 0 32 32"><path d="M28.093 3.824H3.913A3.916 3.916 0 0 0 0 7.737v16.526a3.917 3.917 0 0 0 3.913 3.913h24.174A3.917 3.917 0 0 0 32 24.263V7.743a3.912 3.912 0 0 0-3.907-3.92zm2.126 20.439a2.127 2.127 0 0 1-2.125 2.125H3.914a2.127 2.127 0 0 1-2.125-2.125V7.743c0-1.172.953-2.125 2.125-2.125h24.174c1.172 0 2.125.953 2.125 2.125v16.52h.007z"/><path d="m20.181 15.795 7.826-7.018a.899.899 0 0 0 .066-1.265.899.899 0 0 0-1.265-.066l-10.793 9.687-2.106-1.88c-.007-.007-.013-.013-.013-.02a1.362 1.362 0 0 0-.146-.126L5.182 7.44c-.371-.331-.934-.298-1.265.073s-.298.934.073 1.265l7.919 7.078-7.886 7.383a.898.898 0 0 0 1.225 1.312l8.005-7.489 2.172 1.94a.894.894 0 0 0 1.192-.007l2.231-2 7.959 7.561a.896.896 0 0 0 1.265-.033.898.898 0 0 0-.033-1.265l-7.859-7.462z"/></symbol>
        <symbol id="icon-phone" viewBox="0 0 36 32"><path d="M28.1 19.823c-.728-.682-1.606-1.047-2.536-1.047-.923 0-1.809.358-2.567 1.04l-2.371 2.127c-.195-.094-.39-.182-.578-.27-.27-.122-.525-.236-.743-.358-2.221-1.27-4.24-2.924-6.176-5.065-.938-1.067-1.568-1.965-2.026-2.877.615-.507 1.186-1.033 1.741-1.54.21-.189.42-.385.63-.574 1.576-1.418 1.576-3.255 0-4.674l-2.049-1.844a26.523 26.523 0 0 1-.698-.642c-.45-.419-.923-.851-1.411-1.256-.728-.648-1.598-.993-2.514-.993s-1.801.344-2.551.993l-.015.014-2.551 2.317C.724 6.039.177 7.092.057 8.315c-.18 1.972.465 3.809.961 5.011 1.216 2.951 3.032 5.687 5.741 8.618 3.287 3.532 7.242 6.322 11.759 8.287 1.726.736 4.03 1.607 6.604 1.756.158.007.323.014.473.014 1.733 0 3.189-.561 4.33-1.675.008-.014.023-.02.03-.034.39-.425.841-.81 1.313-1.222.323-.277.653-.567.976-.871.743-.696 1.133-1.506 1.133-2.337 0-.837-.398-1.641-1.156-2.317l-4.12-3.721zm2.687 7.112c-.007 0-.007.007 0 0-.293.284-.593.54-.916.824a18.74 18.74 0 0 0-1.448 1.351c-.758.729-1.651 1.074-2.822 1.074-.113 0-.233 0-.345-.007-2.229-.128-4.3-.912-5.853-1.58-4.247-1.851-7.977-4.478-11.076-7.807-2.559-2.776-4.27-5.342-5.403-8.098-.698-1.682-.953-2.992-.84-4.228.075-.79.413-1.445 1.036-2.006l2.559-2.303c.368-.311.758-.48 1.141-.48.473 0 .856.257 1.096.473l.022.02c.458.385.893.783 1.351 1.209.233.216.473.432.713.655l2.049 1.844c.795.716.795 1.378 0 2.094-.218.196-.428.392-.645.581a37.445 37.445 0 0 1-1.884 1.648c-.015.014-.03.02-.037.034-.645.581-.525 1.148-.39 1.533l.023.061c.533 1.162 1.283 2.256 2.424 3.559l.008.007c2.071 2.296 4.255 4.086 6.664 5.457.308.176.623.317.923.453.27.121.525.236.743.358.03.014.06.034.09.047.255.115.495.169.743.169.623 0 1.013-.351 1.141-.466l2.566-2.31c.255-.23.66-.507 1.133-.507.465 0 .848.263 1.081.493l.015.014 4.135 3.721c.773.689.773 1.398.007 2.114zM19.215 7.612c1.966.297 3.752 1.135 5.178 2.418s2.349 2.891 2.687 4.66c.082.446.51.756.998.756.06 0 .113-.007.173-.014.555-.081.923-.554.833-1.054-.405-2.141-1.531-4.093-3.249-5.639s-3.887-2.56-6.266-2.924c-.555-.081-1.073.25-1.171.743s.263.973.818 1.054zM35.515 14.116c-.668-3.525-2.514-6.734-5.351-9.287S23.763.615 19.846.014c-.548-.088-1.066.25-1.163.743-.09.5.278.966.833 1.054 3.497.534 6.686 2.026 9.223 4.302 2.537 2.283 4.187 5.153 4.78 8.3.083.446.51.756.998.756.06 0 .113-.007.173-.014.548-.074.923-.547.825-1.04z"/></symbol>
        <symbol id="icon-placeholder" viewBox="0 0 32 32"><path d="M15.978 0C9.511 0 4.25 5.261 4.25 11.728c0 2.971 1.872 7.168 5.564 12.475 2.698 3.88 5.353 6.882 5.464 7.008l.7.789.7-.789a83.531 83.531 0 0 0 5.464-7.008c3.692-5.307 5.564-9.505 5.564-12.475C27.706 5.261 22.445 0 15.978 0zm4.638 23.12a84.725 84.725 0 0 1-4.639 6.034 85.105 85.105 0 0 1-4.628-6.019C7.928 18.218 6.12 14.273 6.12 11.728c0-5.435 4.422-9.857 9.857-9.857s9.857 4.422 9.857 9.857c0 2.542-1.804 6.481-5.218 11.392z"/><path d="M15.978 4.334c-3.817 0-6.922 3.105-6.922 6.922s3.105 6.922 6.922 6.922c3.817 0 6.922-3.105 6.922-6.922s-3.105-6.922-6.922-6.922zm0 11.973c-2.785 0-5.051-2.266-5.051-5.051s2.266-5.051 5.051-5.051 5.051 2.266 5.051 5.051-2.266 5.051-5.051 5.051z"/></symbol>
        <symbol id="icon-telegram" viewBox="0 0 32 32"><path d="M30.664 9.59a15.946 15.946 0 0 0-3.629-5.176.502.502 0 0 0-.692.725A14.864 14.864 0 0 1 30.998 16c0 8.27-6.728 14.998-14.998 14.998S1.002 24.27 1.002 16 7.73 1.002 16 1.002c3.021 0 5.933.894 8.421 2.586a.5.5 0 1 0 .563-.829A15.917 15.917 0 0 0 15.999 0C11.725 0 7.707 1.664 4.685 4.686S-.001 11.726-.001 16s1.664 8.292 4.686 11.314S11.725 32 15.999 32s8.292-1.664 11.314-4.686 4.686-7.04 4.686-11.314c0-2.228-.45-4.385-1.336-6.41z"/><path d="m23.271 6.784-9.636 4.486a.501.501 0 1 0 .423.909l5.944-2.767-9.521 7.708-3.627-1.587 5.083-2.366a.501.501 0 1 0-.423-.909l-5.471 2.547a.81.81 0 0 0 .017 1.474l4.05 1.772 1.186 7.117c.073.44.669.565.913.192l3.365-5.136 6.363 2.969a.816.816 0 0 0 1.149-.685l.896-15.241a.506.506 0 0 0-.712-.484zM11.876 22.558l-.775-4.652 7.898-6.394-6.045 6.778a.516.516 0 0 0-.114.217l-.964 4.051zm1.065-.144.732-3.077.983.459-1.715 2.618zm2.27-3.465-1.06-.495 5.217-5.849-4.156 6.344zm6.891 3.217-5.974-2.788 6.744-10.293-.77 13.081z"/></symbol>
        <symbol id="icon-viber" viewBox="0 0 32 32"><path d="M27.2 3.358a.501.501 0 1 0-.716.702 10.132 10.132 0 0 1 2.912 7.132v4.811c0 5.618-4.571 10.189-10.189 10.189h-5.88a.5.5 0 0 0-.354.147l-3.955 3.955v-4.491a.502.502 0 0 0-.3-.459 10.194 10.194 0 0 1-6.114-9.341v-4.811c0-5.618 4.571-10.189 10.189-10.189h6.414c2.002 0 3.94.58 5.604 1.678a.501.501 0 0 0 .552-.836A11.147 11.147 0 0 0 19.207.001h-6.414C6.622.001 1.602 5.022 1.602 11.192v4.811c0 4.339 2.507 8.277 6.414 10.122v5.379c0 .436.546.664.855.354l4.664-4.664h5.672c6.171 0 11.191-5.02 11.191-11.191v-4.811a11.13 11.13 0 0 0-3.199-7.834z"/><path d="m24.037 19.895-.48-2.603a.503.503 0 0 0-.395-.401l-3.78-.756a.503.503 0 0 0-.453.137l-1.552 1.552c-2.616-1.167-4.061-2.616-5.334-5.343l1.547-1.547a.502.502 0 0 0 .137-.453l-.756-3.78a.5.5 0 0 0-.4-.394l-2.603-.481a.491.491 0 0 0-.202.004 3.701 3.701 0 0 0-1.798.993c-.857.857-1.184 2.108-.946 3.619.108.688.269 1.401.478 2.118a.501.501 0 0 0 .962-.28 16.053 16.053 0 0 1-.45-1.994c-.189-1.198.035-2.125.665-2.755a2.696 2.696 0 0 1 1.215-.701l2.163.399.637 3.184-1.604 1.603a.5.5 0 0 0-.103.559c1.458 3.264 3.168 4.973 6.309 6.304.188.08.406.037.55-.107l1.603-1.603 3.184.637.399 2.164a2.703 2.703 0 0 1-.7 1.215c-.63.63-1.557.853-2.755.664-2.395-.377-5.718-1.54-7.859-3.673l-.031-.031c-.985-.989-1.863-2.353-2.539-3.945a.5.5 0 1 0-.922.392c.726 1.708 1.677 3.182 2.753 4.263l.031.031c2.312 2.303 5.861 3.552 8.412 3.954.32.05.628.075.924.075 1.099 0 2.02-.346 2.695-1.021a3.697 3.697 0 0 0 .993-1.798.491.491 0 0 0 .004-.202zM17.069 9.087a.5.5 0 1 0 0 1.002c1.197 0 2.171.974 2.171 2.171 0 .273.228.501.501.501s.501-.228.501-.501a3.178 3.178 0 0 0-3.174-3.174z"/><path d="M17.069 6.949c-.197 0-.395.011-.589.032a.501.501 0 0 0 .11.996 4.314 4.314 0 0 1 4.763 4.763.501.501 0 0 0 .996.11 5.318 5.318 0 0 0-5.28-5.902z"/><path d="M17.069 4.811c-.19 0-.383.007-.572.022a.502.502 0 0 0 .076 1 6.455 6.455 0 0 1 6.772 7.917.507.507 0 0 0 .363.601.505.505 0 0 0 .612-.37 7.5 7.5 0 0 0 .199-1.719c0-4.108-3.342-7.45-7.45-7.45z"/></symbol>
        <symbol id="icon-whatsapp" viewBox="0 0 32 32"><path d="M16 0C7.177 0 0 7.177 0 16c0 3.01.836 5.932 2.423 8.469-.632 2.214-1.774 6.402-1.786 6.446a.613.613 0 0 0 .775.75l6.342-1.951A15.955 15.955 0 0 0 16 32c8.823 0 16-7.177 16-16S24.823 0 16 0zm0 30.769c-2.781 0-5.49-.777-7.834-2.247a.616.616 0 0 0-.508-.066L2.12 30.161a611.93 611.93 0 0 1 1.562-5.618.616.616 0 0 0-.075-.505 14.716 14.716 0 0 1-2.376-8.037C1.231 7.858 7.857 1.232 16 1.232s14.769 6.626 14.769 14.769S24.143 30.77 16 30.77z"/><path d="M26.452 19.77a44.25 44.25 0 0 1-2.809-1.725c-.539-.352-.929-.606-1.214-.75-.798-.398-1.403-.117-1.633.116a.575.575 0 0 0-.077.094c-.829 1.244-1.911 2.433-2.228 2.497-.366-.057-2.08-1.031-3.783-2.45-1.739-1.449-2.833-2.837-2.994-3.782 1.116-1.148 1.518-1.871 1.518-2.693 0-.847-1.977-4.385-2.334-4.743-.359-.358-1.167-.414-2.402-.168a.615.615 0 0 0-.314.168c-.15.15-3.649 3.717-1.986 8.041 1.825 4.745 6.51 10.261 12.483 11.157.679.102 1.315.152 1.911.152 3.514 0 5.588-1.768 6.172-5.275a.612.612 0 0 0-.308-.639zm-7.592 4.544c-6.316-.947-10.295-7.205-11.517-10.382-1.212-3.151 1.023-5.96 1.585-6.595.457-.078.937-.11 1.138-.079.419.583 1.87 3.324 1.934 3.818 0 .323-.105.773-1.358 2.026a.61.61 0 0 0-.18.435c0 3.222 6.796 7.692 8 7.692 1.047 0 2.412-1.759 3.189-2.906a.582.582 0 0 1 .228.071c.221.111.605.362 1.091.679.641.419 1.493.975 2.498 1.552-.457 2.197-1.733 4.419-6.608 3.687z"/></symbol>
        <symbol id="icon-SAYAMA-RS" viewBox="0 0 92 32">
<path fill="#fff" style="fill: var(--color1, #fff)" d="M86.843 2.995v2.419c0 0 0 0.062 0.062 0.062h0.435c0 0 0.062 0 0.062-0.062v-0.806c0.186 0 0.372 0 0.372 0s0.372 0.683 0.372 0.744c0.062 0.062 0.124 0.062 0.124 0.062h0.435c0 0 0 0 0-0.062l-0.435-0.93c0.248-0.125 0.372-0.372 0.372-0.683 0-0.434-0.372-0.806-0.869-0.806h-0.869c0-0.001-0.062-0.001-0.062 0.062zM87.401 3.367h0.372c0.186 0 0.372 0.186 0.372 0.372s-0.186 0.372-0.372 0.372h-0.372v-0.744z"></path>
<path fill="#fff" style="fill: var(--color1, #fff)" d="M84.92 4.173c0 1.55 1.241 2.791 2.792 2.791s2.791-1.241 2.791-2.791c0-1.551-1.241-2.792-2.791-2.792-1.551 0.001-2.792 1.242-2.792 2.792zM89.944 4.173c0 1.241-0.992 2.233-2.233 2.233s-2.234-0.992-2.234-2.233c0-1.241 0.993-2.234 2.234-2.234 1.241 0.001 2.233 0.993 2.233 2.234z"></path>
<path fill="#fff" style="fill: var(--color1, #fff)" d="M49.258 4.422l2.922 17.211h-4.841l-0.399-3.122h-2.655l-0.396 3.122h-4.844l2.921-17.211h7.292zM46.554 15.494v0l-0.941-7.371-0.941 7.371h1.883z"></path>
<path fill="#fff" style="fill: var(--color1, #fff)" d="M81.865 4.422l2.919 17.211h-4.843l-0.399-3.122h-2.651l-0.4 3.122h-4.84l2.919-17.211h7.294zM79.158 15.494v0l-0.941-7.371-0.941 7.371h1.883z"></path>
<path fill="#fff" style="fill: var(--color1, #fff)" d="M25.881 4.422l2.922 17.211h-4.841l-0.399-3.122h-2.652l-0.4 3.122h-4.844l2.922-17.211h7.292zM23.177 15.494v0l-0.941-7.371-0.941 7.371h1.883z"></path>
<path fill="#fff" style="fill: var(--color1, #fff)" d="M36.331 21.633v-6.14l3.732-11.072-4.819 0.004-1.322 6.839-1.322-6.839v-0.004h-4.819l3.731 11.072v6.14h2.41z"></path>
<path fill="#fff" style="fill: var(--color1, #fff)" d="M14.264 8.948c0-1.365-0.155-2.333-0.46-2.903-0.312-0.572-0.941-1.046-1.893-1.423-0.95-0.373-2.095-0.561-3.45-0.561-1.237 0-2.29 0.175-3.164 0.511-0.871 0.346-1.501 0.821-1.893 1.434-0.39 0.609-0.583 1.577-0.583 2.889 0 0.915 0.134 1.665 0.41 2.256 0.273 0.585 0.623 1.049 1.038 1.379 0.421 0.339 1.279 0.867 2.571 1.609 1.29 0.732 2.105 1.249 2.435 1.56 0.318 0.308 0.48 0.974 0.48 1.991 0 0.459-0.087 0.806-0.255 1.038-0.168 0.236-0.425 0.352-0.769 0.352-0.345 0-0.588-0.094-0.726-0.276-0.136-0.187-0.203-0.596-0.203-1.242v-2.098h-4.822v1.126c0 1.29 0.154 2.284 0.455 2.989 0.308 0.701 0.951 1.279 1.936 1.729 0.981 0.456 2.17 0.685 3.559 0.685 1.27 0 2.378-0.197 3.336-0.59 0.951-0.389 1.595-0.883 1.929-1.462 0.333-0.581 0.501-1.481 0.501-2.711 0-1.686-0.299-2.908-0.905-3.668-0.601-0.754-2.056-1.725-4.366-2.907-0.803-0.417-1.298-0.762-1.47-1.053-0.182-0.29-0.269-0.726-0.269-1.301 0-0.443 0.077-0.781 0.238-0.993 0.164-0.228 0.396-0.333 0.706-0.333 0.292 0 0.498 0.080 0.623 0.242 0.122 0.164 0.189 0.544 0.189 1.139v1.276h4.823v-0.684z"></path>
<path fill="#fff" style="fill: var(--color1, #fff)" d="M63.47 21.633l1.912-11.35v11.35h4.82v-17.211h-6.977l-1.322 6.843-1.323-6.843h-6.977v17.211h4.822v-11.35l1.911 11.35h1.568z"></path>
<path fill="#fff" style="fill: var(--color1, #fff)" d="M2.834 30.099v-5.095h0.487v4.685h2.349v0.41h-2.835z"></path>
<path fill="#fff" style="fill: var(--color1, #fff)" d="M7.317 28.434c0 0.429 0.119 0.76 0.358 0.992s0.582 0.348 1.028 0.348c0.445 0 0.786-0.116 1.024-0.348s0.357-0.562 0.357-0.992v-3.43h0.487v3.43c0 0.565-0.159 0.997-0.48 1.298s-0.782 0.452-1.388 0.452-1.069-0.151-1.39-0.452c-0.322-0.301-0.483-0.733-0.483-1.298v-3.43h0.485v3.43z"></path>
<path fill="#fff" style="fill: var(--color1, #fff)" d="M12.129 30.099l1.625-2.603-1.519-2.49h0.532l1.256 2.053 1.256-2.053h0.511l-1.504 2.463 1.651 2.631h-0.554l-1.374-2.228-1.367 2.228h-0.513z"></path>
<path fill="#fff" style="fill: var(--color1, #fff)" d="M17.975 28.434c0 0.429 0.119 0.76 0.358 0.992s0.582 0.348 1.028 0.348c0.445 0 0.786-0.116 1.024-0.348s0.357-0.562 0.357-0.992v-3.43h0.487v3.43c0 0.565-0.159 0.997-0.48 1.298-0.319 0.301-0.782 0.452-1.388 0.452s-1.069-0.151-1.39-0.452c-0.322-0.301-0.483-0.733-0.483-1.298v-3.43h0.485v3.43z"></path>
<path fill="#fff" style="fill: var(--color1, #fff)" d="M24.883 25.004c0.622 0 1.091 0.116 1.404 0.348 0.315 0.232 0.471 0.578 0.471 1.037 0 0.344-0.088 0.628-0.263 0.849s-0.436 0.381-0.783 0.477l1.263 2.384h-0.55l-1.221-2.315h-1.295v2.315h-0.487v-5.095h1.46zM24.95 25.414h-1.039v1.971h1.185c0.372 0 0.657-0.085 0.858-0.256s0.299-0.415 0.299-0.732c0-0.333-0.108-0.581-0.322-0.74-0.213-0.164-0.54-0.243-0.981-0.243z"></path>
<path fill="#fff" style="fill: var(--color1, #fff)" d="M29.79 30.099v-2.087l-1.607-3.008h0.515l1.323 2.442 1.344-2.442h0.515l-1.603 3.008v2.087h-0.487z"></path>
<path fill="#fff" style="fill: var(--color1, #fff)" d="M37.864 25.004c0.623 0 1.090 0.116 1.404 0.348s0.471 0.578 0.471 1.037c0 0.344-0.088 0.628-0.263 0.849s-0.436 0.381-0.785 0.477l1.263 2.384h-0.55l-1.221-2.315h-1.295v2.315h-0.485v-5.095h1.46zM37.931 25.414h-1.039v1.971h1.185c0.371 0 0.657-0.085 0.858-0.256s0.299-0.415 0.299-0.732c0-0.333-0.106-0.581-0.32-0.74-0.214-0.164-0.541-0.243-0.982-0.243z"></path>
<path fill="#fff" style="fill: var(--color1, #fff)" d="M44.822 29.689v0.41h-3.118v-5.095h3.009v0.41h-2.524v1.785h1.825v0.41h-1.825v2.080h2.633z"></path>
<path fill="#fff" style="fill: var(--color1, #fff)" d="M45.921 30.099l1.642-5.095h0.653l1.642 5.095h-0.501l-0.525-1.67h-1.916l-0.525 1.67h-0.471zM47.046 28.017h1.663l-0.827-2.687-0.837 2.687z"></path>
<path fill="#fff" style="fill: var(--color1, #fff)" d="M51.522 30.099v-5.095h0.487v4.685h2.349v0.41h-2.835z"></path>
<path fill="#fff" style="fill: var(--color1, #fff)" d="M61.907 29.689v0.41h-3.119v-5.095h3.009v0.41h-2.522v1.785h1.825v0.41h-1.825v2.080h2.633z"></path>
<path fill="#fff" style="fill: var(--color1, #fff)" d="M63.145 28.879l0.422-0.169c0.141 0.362 0.323 0.631 0.544 0.804s0.492 0.26 0.814 0.26c0.332 0 0.597-0.091 0.8-0.273 0.201-0.182 0.304-0.42 0.304-0.716 0-0.236-0.066-0.431-0.199-0.583s-0.357-0.292-0.674-0.418c-0.172-0.067-0.401-0.147-0.687-0.241s-0.467-0.164-0.548-0.21c-0.253-0.143-0.432-0.294-0.54-0.455-0.106-0.161-0.159-0.36-0.159-0.596 0-0.422 0.133-0.755 0.401-0.997s0.635-0.364 1.104-0.364c0.417 0 0.76 0.099 1.031 0.298s0.477 0.504 0.62 0.915l-0.411 0.127c-0.13-0.318-0.298-0.551-0.502-0.702s-0.457-0.228-0.757-0.228c-0.291 0-0.527 0.081-0.708 0.245s-0.271 0.375-0.271 0.638c0 0.197 0.059 0.364 0.176 0.499s0.298 0.246 0.544 0.33c0.095 0.035 0.232 0.081 0.411 0.141 0.516 0.169 0.848 0.305 0.997 0.403 0.239 0.151 0.413 0.318 0.519 0.498 0.108 0.18 0.162 0.393 0.162 0.639 0 0.446-0.145 0.8-0.435 1.065s-0.681 0.396-1.176 0.396c-0.445 0-0.811-0.106-1.098-0.318-0.288-0.211-0.516-0.541-0.684-0.989z"></path>
<path fill="#fff" style="fill: var(--color1, #fff)" d="M69.29 30.099v-4.685h-1.554v-0.41h3.598v0.41h-1.554v4.685h-0.49z"></path>
<path fill="#fff" style="fill: var(--color1, #fff)" d="M71.929 30.099l1.642-5.095h0.653l1.642 5.095h-0.501l-0.525-1.67h-1.916l-0.525 1.67h-0.471zM73.055 28.017h1.663l-0.827-2.687-0.837 2.687z"></path>
<path fill="#fff" style="fill: var(--color1, #fff)" d="M78.018 30.099v-4.685h-1.554v-0.41h3.598v0.41h-1.554v4.685h-0.49z"></path>
<path fill="#fff" style="fill: var(--color1, #fff)" d="M84.773 29.689v0.41h-3.119v-5.095h3.009v0.41h-2.522v1.785h1.826v0.41h-1.826v2.080h2.633z"></path>
</symbol>
<symbol id="icon-hOne_sv_3" viewBox="0 0 38 32">
<path fill="#fff" style="fill: var(--color1, #fff)" d="M22.259 15.484h-1.023v-2.677c0-2.81-1.975-5.095-4.403-5.095s-4.403 2.286-4.403 5.095v2.677h-1.023c-0.36 0-0.652 0.338-0.652 0.755v11.131c0 0.417 0.292 0.755 0.652 0.755h10.853c0.36 0 0.652-0.338 0.652-0.755v-11.131c0-0.417-0.292-0.755-0.652-0.755zM13.734 12.806c0-1.977 1.39-3.585 3.098-3.585s3.098 1.608 3.098 3.585v2.677h-6.197v-2.677zM21.607 26.614h-9.548v-9.621h9.548v9.621z"></path>
<path fill="#fff" style="fill: var(--color1, #fff)" d="M16.18 22.784v1.834c0 0.417 0.292 0.755 0.652 0.755s0.652-0.338 0.652-0.755v-1.834c0.788-0.314 1.357-1.181 1.357-2.198 0-1.282-0.901-2.325-2.009-2.325s-2.009 1.043-2.009 2.325c0 1.018 0.568 1.884 1.357 2.198zM16.833 19.771c0.388 0 0.704 0.366 0.704 0.815s-0.316 0.815-0.704 0.815-0.704-0.366-0.704-0.815c0-0.449 0.316-0.815 0.704-0.815z"></path>
<path fill="#fff" style="fill: var(--color1, #fff)" d="M37.325 9.088c-0.342-0.501-0.854-0.789-1.406-0.789h-2.254v-2.715c0-1.056-0.743-1.916-1.656-1.916h-15.755c-0.108 0-0.205-0.079-0.242-0.197l-0.677-2.193c-0.228-0.738-0.836-1.234-1.513-1.234h-7.898c-0.677 0-1.285 0.496-1.513 1.234l-0.677 2.193c-0.036 0.118-0.134 0.197-0.242 0.197h-1.836c-0.913-0-1.656 0.859-1.656 1.916v24.454c0 1.056 0.743 1.916 1.656 1.916h30.354c0.88 0 1.6-0.799 1.651-1.803l4-19.298c0.129-0.621 0.007-1.265-0.335-1.766zM32.36 30.039c0 0.224-0.157 0.406-0.351 0.406h-30.354c-0.193 0-0.351-0.182-0.351-0.406v-24.454c0-0.224 0.157-0.406 0.351-0.406h1.836c0.658 0 1.249-0.482 1.471-1.199l0.677-2.193c0.043-0.139 0.157-0.232 0.285-0.232h7.898c0.127 0 0.242 0.093 0.285 0.232l0.677 2.193c0.222 0.717 0.813 1.199 1.471 1.199h15.755c0.193 0 0.351 0.182 0.351 0.406v24.454zM36.391 10.502l-2.726 13.152v-13.845h2.254c0.205 0 0.327 0.134 0.381 0.214s0.139 0.248 0.091 0.479z"></path>
</symbol>
<symbol id="icon-hOne_sv_1" viewBox="0 0 27 32">
<path fill="#fff" style="fill: var(--color1, #fff)" d="M26.689 28.485l-4.237-10.228c-0.108-0.26-0.407-0.384-0.667-0.276s-0.384 0.407-0.276 0.667l3.83 9.246-3.493-1.012c-0.229-0.067-0.474 0.035-0.589 0.244l-1.755 3.186-4.109-9.921c4.743-0.915 8.337-5.096 8.337-10.102 0-5.673-4.615-10.289-10.289-10.289s-10.289 4.616-10.289 10.289c0 2.298 0.757 4.422 2.035 6.137l-4.995 12.060c-0.075 0.181-0.040 0.39 0.091 0.536s0.334 0.205 0.523 0.15l4.121-1.194 2.070 3.759c0.090 0.164 0.262 0.264 0.447 0.264 0.009 0 0.019-0 0.028-0.001 0.196-0.011 0.368-0.133 0.444-0.314l3.958-9.556c0.108-0.26-0.016-0.559-0.276-0.667s-0.559 0.016-0.667 0.276l-3.552 8.574-1.754-3.186c-0.115-0.209-0.36-0.311-0.589-0.244l-3.493 1.012 4.385-10.585c1.879 2.010 4.552 3.268 7.514 3.268 0.306 0 0.608-0.014 0.907-0.040l4.617 11.147c0.075 0.181 0.248 0.304 0.444 0.314 0.009 0 0.019 0.001 0.028 0.001 0.185 0 0.357-0.101 0.447-0.264l2.070-3.759 4.121 1.194c0.189 0.055 0.392-0.004 0.523-0.15s0.166-0.355 0.091-0.536zM4.172 10.289c0-5.11 4.157-9.268 9.268-9.268s9.268 4.157 9.268 9.268-4.157 9.268-9.268 9.268c-5.11 0-9.268-4.157-9.268-9.268z"></path>
<path fill="#fff" style="fill: var(--color1, #fff)" d="M19.34 8.372c-0.059-0.181-0.213-0.314-0.401-0.346l-3.436-0.577-1.61-3.090c-0.088-0.169-0.263-0.275-0.453-0.275s-0.365 0.106-0.453 0.275l-1.61 3.090-3.436 0.577c-0.188 0.031-0.342 0.165-0.401 0.346s-0.012 0.38 0.121 0.516l2.441 2.486-0.513 3.446c-0.028 0.188 0.051 0.376 0.205 0.488s0.357 0.129 0.528 0.044l3.119-1.553 3.119 1.553c0.072 0.036 0.15 0.053 0.228 0.053 0.106 0 0.211-0.033 0.3-0.097 0.154-0.112 0.233-0.3 0.205-0.488l-0.513-3.446 2.441-2.486c0.133-0.136 0.18-0.335 0.121-0.516zM15.871 10.839c-0.112 0.114-0.164 0.275-0.141 0.433l0.406 2.728-2.469-1.23c-0.072-0.036-0.15-0.054-0.228-0.054s-0.156 0.018-0.228 0.054l-2.469 1.23 0.406-2.728c0.024-0.158-0.028-0.319-0.141-0.433l-1.933-1.968 2.72-0.457c0.158-0.027 0.294-0.126 0.368-0.268l1.275-2.446 1.275 2.446c0.074 0.142 0.21 0.241 0.368 0.268l2.721 0.457-1.933 1.968z"></path>
<path fill="#fff" style="fill: var(--color1, #fff)" d="M21.175 10.804c-0.28-0.037-0.536 0.16-0.573 0.439-0.474 3.575-3.553 6.271-7.162 6.271-3.984 0-7.225-3.241-7.225-7.225s3.241-7.225 7.225-7.225c3.609 0 6.688 2.696 7.162 6.271 0.037 0.28 0.294 0.477 0.573 0.439s0.476-0.294 0.439-0.573c-0.541-4.081-4.055-7.158-8.174-7.158-4.547 0-8.246 3.699-8.246 8.246s3.699 8.246 8.246 8.246c4.12 0 7.634-3.077 8.174-7.158 0.037-0.28-0.16-0.536-0.439-0.573z"></path>
</symbol>
<symbol id="icon-hOne_sv_2" viewBox="0 0 27 32">
<path fill="#fff" style="fill: var(--color1, #fff)" d="M17.927 0h-17.287v32h25.067v-24.221l-7.779-7.779zM18.24 1.821l5.646 5.646h-5.646v-5.646zM1.707 30.933v-29.867h15.467v7.467h7.467v22.4h-22.933z"></path>
<path fill="#fff" style="fill: var(--color1, #fff)" d="M19.84 11.2h-8.533c-0.294 0-0.533 0.238-0.533 0.533s0.239 0.533 0.533 0.533h8.533c0.294 0 0.533-0.238 0.533-0.533s-0.239-0.533-0.533-0.533z"></path>
<path fill="#fff" style="fill: var(--color1, #fff)" d="M9.373 9.717l-2.294 1.835-0.729-0.729c-0.209-0.209-0.546-0.209-0.754 0s-0.209 0.546 0 0.754l1.067 1.067c0.103 0.103 0.24 0.156 0.377 0.156 0.117 0 0.235-0.038 0.333-0.117l2.667-2.133c0.23-0.185 0.267-0.52 0.083-0.75s-0.519-0.267-0.749-0.083z"></path>
<path fill="#fff" style="fill: var(--color1, #fff)" d="M19.84 17.067h-8.533c-0.294 0-0.533 0.238-0.533 0.533s0.239 0.533 0.533 0.533h8.533c0.294 0 0.533-0.238 0.533-0.533s-0.239-0.533-0.533-0.533z"></path>
<path fill="#fff" style="fill: var(--color1, #fff)" d="M9.373 15.584l-2.294 1.835-0.729-0.729c-0.209-0.209-0.546-0.209-0.754 0s-0.209 0.546 0 0.754l1.067 1.067c0.103 0.103 0.24 0.156 0.377 0.156 0.117 0 0.235-0.038 0.333-0.117l2.667-2.133c0.23-0.184 0.267-0.52 0.083-0.75s-0.519-0.267-0.749-0.083z"></path>
<path fill="#fff" style="fill: var(--color1, #fff)" d="M19.84 22.933h-8.533c-0.294 0-0.533 0.238-0.533 0.533s0.239 0.533 0.533 0.533h8.533c0.294 0 0.533-0.238 0.533-0.533s-0.239-0.533-0.533-0.533z"></path>
<path fill="#fff" style="fill: var(--color1, #fff)" d="M9.373 21.45l-2.294 1.835-0.729-0.729c-0.209-0.209-0.546-0.209-0.754 0s-0.209 0.546 0 0.754l1.067 1.067c0.103 0.103 0.24 0.156 0.377 0.156 0.117 0 0.235-0.038 0.333-0.117l2.667-2.133c0.23-0.184 0.267-0.52 0.083-0.75s-0.519-0.267-0.749-0.083z"></path>
</symbol>
<symbol id="icon-WEQ" viewBox="0 0 20 32">
<path fill="none" stroke="#fff" style="stroke: var(--color1, #fff)" stroke-linejoin="miter" stroke-linecap="butt" stroke-miterlimit="10" stroke-width="0.5694" d="M0.968 24.028v-15.374c0 0 0.797-6.833 8.826-6.833 8.313 0 8.826 6.833 8.826 6.833v15.374c0 2.847-3.189 6.833-8.826 6.833-5.125 0-8.826-3.929-8.826-6.833z"></path>
<path fill="none" stroke="#fff" style="stroke: var(--color1, #fff)" stroke-linejoin="miter" stroke-linecap="butt" stroke-miterlimit="10" stroke-width="0.5694" d="M9.794 5.238v7.972"></path>
</symbol>
    </defs>
</svg>